0
SECTION
2
HEADER
9
$INSUNITS
70
4
9
$ACADVER
1
AC1014
9
$HANDSEED
5
FFFF
0
ENDSEC
0
SECTION
2
TABLES
0
TABLE
2
VPORT
5
8
100
AcDbSymbolTable
0
ENDTAB
0
TABLE
2
LTYPE
5
5
100
AcDbSymbolTable
0
LTYPE
5
14
100
AcDbSymbolTableRecord
100
AcDbLinetypeTableRecord
2
BYBLOCK
70
0
0
LTYPE
5
15
100
AcDbSymbolTableRecord
100
AcDbLinetypeTableRecord
2
BYLAYER
70
0
0
LTYPE
5
16
100
AcDbSymbolTableRecord
100
AcDbLinetypeTableRecord
2
DASHED
70
0
3
Dashed __ __ __ __ __ __ __ __ __ __ __ __ __ _
72
65
73
2
40
0.75
49
0.5
74
0
49
-0.25
74
0
0
ENDTAB
0
TABLE
2
LAYER
5
2
100
AcDbSymbolTable
70
2
0
LAYER
5
50
100
AcDbSymbolTableRecord
100
AcDbLayerTableRecord
2
0
70
0
62
7
6
CONTINUOUS
0
ENDTAB
0
TABLE
2
STYLE
5
3
100
AcDbSymbolTable
70
1
0
STYLE
5
11
100
AcDbSymbolTableRecord
100
AcDbTextStyleTableRecord
2
STANDARD
70
0
0
ENDTAB
0
TABLE
2
VIEW
5
6
100
AcDbSymbolTable
70
0
0
ENDTAB
0
TABLE
2
UCS
5
7
100
AcDbSymbolTable
70
0
0
ENDTAB
0
TABLE
2
APPID
5
9
100
AcDbSymbolTable
70
2
0
APPID
5
12
100
AcDbSymbolTableRecord
100
AcDbRegAppTableRecord
2
ACAD
70
0
0
ENDTAB
0
TABLE
2
DIMSTYLE
5
A
100
AcDbSymbolTable
70
1
0
ENDTAB
0
TABLE
2
BLOCK_RECORD
5
1
100
AcDbSymbolTable
70
1
0
BLOCK_RECORD
5
1F
100
AcDbSymbolTableRecord
100
AcDbBlockTableRecord
2
*MODEL_SPACE
0
BLOCK_RECORD
5
1B
100
AcDbSymbolTableRecord
100
AcDbBlockTableRecord
2
*PAPER_SPACE
0
ENDTAB
0
ENDSEC
0
SECTION
2
BLOCKS
0
BLOCK
5
20
100
AcDbEntity
100
AcDbBlockBegin
2
*MODEL_SPACE
0
ENDBLK
5
21
100
AcDbEntity
100
AcDbBlockEnd
0
BLOCK
5
1C
100
AcDbEntity
100
AcDbBlockBegin
2
*PAPER_SPACE
0
ENDBLK
5
1D
100
AcDbEntity
100
AcDbBlockEnd
0
ENDSEC
0
SECTION
2
ENTITIES
0
POINT
5
100
100
AcDbEntity
8
0
100
AcDbPoint
10
-26.169998369750004
20
81.840000000000003
30
0
0
POINT
5
101
100
AcDbEntity
8
0
100
AcDbPoint
10
26.1699994626
20
81.840000000000003
30
0
0
LWPOLYLINE
5
102
100
AcDbEntity
8
0
100
AcDbPolyline
90
4
70
1
43
0.0
10
6.3999999956760592
20
72.688396939309982
10
-6.4000000477554622
20
72.688396939311261
42
0.99999998509883881
10
-6.4000000000000012
20
69.711603060689981
10
6.399999921338333
20
69.711603060688773
42
1.0000000298023228
0
CIRCLE
5
103
100
AcDbEntity
8
0
100
AcDbCircle
10
6.2573026420040119
20
71.200000000006014
30
0
40
1.1499999999939781
210
0
220
-0
230
1
0
CIRCLE
5
104
100
AcDbEntity
8
0
100
AcDbCircle
10
1.257302642004011
20
71.200000000000003
30
0
40
1.149999999999989
210
0
220
-0
230
1
0
CIRCLE
5
105
100
AcDbEntity
8
0
100
AcDbCircle
10
-6.2573026420039959
20
71.200000000000017
30
0
40
1.1499999999999855
210
0
220
-0
230
1
0
CIRCLE
5
106
100
AcDbEntity
8
0
100
AcDbCircle
10
3.757302642004011
20
71.200000000000003
30
0
40
1.1499999999999888
210
0
220
-0
230
1
0
CIRCLE
5
107
100
AcDbEntity
8
0
100
AcDbCircle
10
-3.7573026420039888
20
71.200000000000003
30
0
40
1.1499999999999884
210
0
220
-0
230
1
0
CIRCLE
5
108
100
AcDbEntity
8
0
100
AcDbCircle
10
-1.2573026420039943
20
71.199999999999989
30
0
40
1.1500000000000001
210
0
220
-0
230
1
0
LWPOLYLINE
5
109
100
AcDbEntity
8
0
100
AcDbPolyline
90
20
70
1
43
0.0
10
-0.9799976446656451
20
71.986636420782901
10
-0.97999764466564498
20
72.006636420782897
10
-1.619997644665645
20
72.006636420782911
10
-1.6199976446656397
20
71.986636420782901
42
-0.41421356237311435
10
-1.6999976446656451
20
71.906636420782903
10
-1.719997644665646
20
71.906636420782903
10
-1.7199976446656542
20
70.936636420782904
10
-1.709997644665654
20
70.936636420782904
42
-0.99999999999999989
10
-1.7099976446656555
20
70.836636420782909
10
-1.7499976446656551
20
70.836636420782909
42
0.41421356237309825
10
-1.7999976446656558
20
70.786636420782912
10
-1.7999976446656603
20
70.281636420782917
10
-0.79999764466565981
20
70.281636420782888
10
-0.79999764466565537
20
70.786636420782884
42
0.41421356237314705
10
-0.84999764466565542
20
70.836636420782895
10
-0.88999764466565501
20
70.836636420782895
42
-0.99999999999999989
10
-0.88999764466565423
20
70.936636420782889
10
-0.87999764466565411
20
70.936636420782889
10
-0.87999764466564567
20
71.906636420782888
10
-0.89999764466564569
20
71.906636420782888
42
-0.41421356237313006
0
SPLINE
5
110
100
AcDbEntity
8
0
100
AcDbSpline
70
0
71
3
72
92
73
88
74
0
42
0.000000001
43
0.0000000001
44
0.0000000001
40
0
40
0
40
0
40
0
40
0.50707059064647397
40
0.50707059064647397
40
0.50707059064647397
40
0.96285170337103465
40
0.96285170337103465
40
0.96285170337103465
40
1.4026400504856835
40
1.4026400504856835
40
1.4026400504856835
40
1.8700901242804226
40
1.8700901242804226
40
1.8700901242804226
40
2.3956193052299941
40
2.3956193052299941
40
2.3956193052299941
40
2.985839802557456
40
2.985839802557456
40
2.985839802557456
40
3.6444565487447433
40
3.6444565487447433
40
3.6444565487447433
40
4.3551364518737721
40
4.3551364518737721
40
4.3551364518737721
40
5.0801934741450303
40
5.0801934741450303
40
5.0801934741450303
40
5.7818618842999552
40
5.7818618842999552
40
5.7818618842999552
40
6.4512589524121404
40
6.4512589524121404
40
6.4512589524121404
40
7.0996809360911142
40
7.0996809360911142
40
7.0996809360911142
40
7.7387608205939902
40
7.7387608205939902
40
7.7387608205939902
40
8.3734408826074294
40
8.3734408826074294
40
8.3734408826074294
40
9.0053399119561472
40
9.0053399119561472
40
9.0053399119561472
40
9.6371828563234256
40
9.6371828563234256
40
9.6371828563234256
40
10.271839809823192
40
10.271839809823192
40
10.271839809823192
40
10.911376492081112
40
10.911376492081112
40
10.911376492081112
40
11.560857738980461
40
11.560857738980461
40
11.560857738980461
40
12.233977824469923
40
12.233977824469923
40
12.233977824469923
40
12.940317707259648
40
12.940317707259648
40
12.940317707259648
40
13.660809750362375
40
13.660809750362375
40
13.660809750362375
40
14.356903318274798
40
14.356903318274798
40
14.356903318274798
40
14.996384896164756
40
14.996384896164756
40
14.996384896164756
40
15.56462594667661
40
15.56462594667661
40
15.56462594667661
40
16.066268005674026
40
16.066268005674026
40
16.066268005674026
40
16.515428984565354
40
16.515428984565354
40
16.515428984565354
40
16.924470744863338
40
16.924470744863338
40
16.924470744863338
40
17.3270101855753
40
17.3270101855753
40
17.3270101855753
40
17.3270101855753
10
-36.515812527010006
20
-70.730000000000018
30
0
10
-36.515812155212267
20
-70.900880077935838
30
0
10
-36.515838632218475
20
-71.071756353077873
30
0
10
-36.515726901296929
20
-71.242557700868744
30
0
10
-36.515626471801149
20
-71.396082732268681
30
0
10
-36.515414379442497
20
-71.549547227325434
30
0
10
-36.514796226083106
20
-71.702910438286892
30
0
10
-36.514199762919979
20
-71.85089233392479
30
0
10
-36.513225235110312
20
-71.998779928618703
30
0
10
-36.511506167576428
20
-72.146541601975102
30
0
10
-36.509678974448541
20
-72.303597161922625
30
0
10
-36.507010636250897
20
-72.460510462016487
30
0
10
-36.502980882631455
20
-72.617241198249957
30
0
10
-36.498450445612029
20
-72.793445203896482
30
0
10
-36.492199274067467
20
-72.969418461504887
30
0
10
-36.483443382254364
20
-73.145080205707757
30
0
10
-36.4736096622483
20
-73.342365467465228
30
0
10
-36.460616618482916
20
-73.539257802429304
30
0
10
-36.443382820462624
20
-73.735559829594322
30
0
10
-36.424151926198583
20
-73.954609833765346
30
0
10
-36.399640470870864
20
-74.172924790302858
30
0
10
-36.368501294669272
20
-74.390059884019777
30
0
10
-36.33490059007957
20
-74.624359343093658
30
0
10
-36.293582916754332
20
-74.857285032108052
30
0
10
-36.24323898530632
20
-75.088040773378196
30
0
10
-36.1918765915417
20
-75.323464724302767
30
0
10
-36.13111904155155
20
-75.556630042936803
30
0
10
-36.060123884435697
20
-75.786483890664442
30
0
10
-35.991418861945007
20
-76.008923200882833
30
0
10
-35.913126061176989
20
-76.228261234754882
30
0
10
-35.824939577688468
20
-76.443448159068353
30
0
10
-35.740808993155945
20
-76.648738142409201
30
0
10
-35.647673864272747
20
-76.850250073514033
30
0
10
-35.545592132444014
20
-77.047068999145864
30
0
10
-35.446709059596913
20
-77.237720742727134
30
0
10
-35.33943127066108
20
-77.423968977089444
30
0
10
-35.224038480161198
20
-77.605018929528981
30
0
10
-35.110308204073533
20
-77.783460416102017
30
0
10
-34.98869507471143
20
-77.956852329566132
30
0
10
-34.859614930242159
20
-78.124481443467189
30
0
10
-34.73142345358476
20
-78.290956494530221
30
0
10
-34.595867423029546
20
-78.451747822261353
30
0
10
-34.453453404048055
20
-78.606211650639153
30
0
10
-34.311663412923139
20
-78.759998651465651
30
0
10
-34.163075402183352
20
-78.907513482955679
30
0
10
-34.008265350377322
20
-79.048186090944711
30
0
10
-33.853469038929298
20
-79.188846213362126
30
0
10
-33.692451790855912
20
-79.322665326804611
30
0
10
-33.52585327129249
20
-79.449150635652913
30
0
10
-33.358512779756943
20
-79.576199266157943
30
0
10
-33.1855411919353
20
-79.695848622163055
30
0
10
-33.007641023443
20
-79.807700087276487
30
0
10
-32.828373022197134
20
-79.920411552123525
30
0
10
-32.644100359510851
20
-80.025204752774499
30
0
10
-32.455589232654432
20
-80.121822944568521
30
0
10
-32.264146825796949
20
-80.219943514381697
30
0
10
-32.068333116768734
20
-80.309632861816283
30
0
10
-31.868984303721245
20
-80.390849720445516
30
0
10
-31.662379893322399
20
-80.475022587768024
30
0
10
-31.451978365169996
20
-80.550095005009226
30
0
10
-31.238703790336302
20
-80.6163388758076
30
0
10
-31.014903696656866
20
-80.685852011641657
30
0
10
-30.787939977672174
20
-80.745643685893839
30
0
10
-30.55878967501733
20
-80.796474448015289
30
0
10
-30.325048138173443
20
-80.848323650567337
30
0
10
-30.089031519507753
20
-80.890849263734879
30
0
10
-29.851581686797495
20
-80.925392900166955
30
0
10
-29.62217276711019
20
-80.958766763713214
30
0
10
-29.39142605750391
20
-80.984690094625705
30
0
10
-29.159870730458358
20
-81.004750995099059
30
0
10
-28.947147365764746
20
-81.023180379997797
30
0
10
-28.733741561914414
20
-81.036662119828719
30
0
10
-28.519895164826821
20
-81.046578259661402
30
0
10
-28.329872018686807
20
-81.055389706168029
30
0
10
-28.139500978529636
20
-81.061385741991771
30
0
10
-27.94887558590451
20
-81.065555239576241
30
0
10
-27.780591871858292
20
-81.069236063676129
30
0
10
-27.612109932719079
20
-81.071493407535073
30
0
10
-27.443477308367612
20
-81.072948889832219
30
0
10
-27.292486789793266
20
-81.074252101637569
30
0
10
-27.141375465695894
20
-81.074912454704986
30
0
10
-26.990178072978132
20
-81.075286733502793
30
0
10
-26.852485685223535
20
-81.075627581585067
30
0
10
-26.714721917541887
20
-81.075731177572436
30
0
10
-26.576918293889634
20
-81.075777307081736
30
0
10
-26.441305261243166
20
-81.075822703294719
30
0
10
-26.305653629692962
20
-81.075812445536087
30
0
10
-26.170000001369999
20
-81.075812527010015
30
0
0
LINE
5
111
100
AcDbEntity
8
0
100
AcDbLine
10
-36.515812527010006
20
-70.730000000000018
30
0
11
-36.515812527009999
21
70.260000001360012
31
0
0
SPLINE
5
112
100
AcDbEntity
8
0
100
AcDbSpline
70
0
71
3
72
92
73
88
74
0
42
0.000000001
43
0.0000000001
44
0.0000000001
40
0
40
0
40
0
40
0
40
0.50707059062665538
40
0.50707059062665538
40
0.50707059062665538
40
0.9628517033337971
40
0.9628517033337971
40
0.9628517033337971
40
1.4026400504292953
40
1.4026400504292953
40
1.4026400504292953
40
1.8700901242031505
40
1.8700901242031505
40
1.8700901242031505
40
2.3956193051266244
40
2.3956193051266244
40
2.3956193051266244
40
2.9858398024227761
40
2.9858398024227761
40
2.9858398024227761
40
3.6444565485787415
40
3.6444565485787415
40
3.6444565485787415
40
4.3551364516833688
40
4.3551364516833688
40
4.3551364516833688
40
5.0801934739510148
40
5.0801934739510148
40
5.0801934739510148
40
5.7818618841196576
40
5.7818618841196576
40
5.7818618841196576
40
6.4512589522386374
40
6.4512589522386374
40
6.4512589522386374
40
7.0996809359209481
40
7.0996809359209481
40
7.0996809359209481
40
7.7387608204271565
40
7.7387608204271565
40
7.7387608204271565
40
8.3734408824404714
40
8.3734408824404714
40
8.3734408824404714
40
9.0053399117907933
40
9.0053399117907933
40
9.0053399117907933
40
9.6371828561562118
40
9.6371828561562118
40
9.6371828561562118
40
10.271839809655848
40
10.271839809655848
40
10.271839809655848
40
10.911376491911906
40
10.911376491911906
40
10.911376491911906
40
11.560857738805923
40
11.560857738805923
40
11.560857738805923
40
12.233977824286585
40
12.233977824286585
40
12.233977824286585
40
12.940317707074437
40
12.940317707074437
40
12.940317707074437
40
13.660809750187413
40
13.660809750187413
40
13.660809750187413
40
14.356903318127417
40
14.356903318127417
40
14.356903318127417
40
14.996384896050168
40
14.996384896050168
40
14.996384896050168
40
15.564625946593097
40
15.564625946593097
40
15.564625946593097
40
16.066268005616923
40
16.066268005616923
40
16.066268005616923
40
16.515428984529123
40
16.515428984529123
40
16.515428984529123
40
16.92447074484522
40
16.92447074484522
40
16.92447074484522
40
17.327010185587401
40
17.327010185587401
40
17.327010185587401
40
17.327010185587401
10
-26.170000000000005
20
80.605812527010016
30
0
10
-26.340880077932646
20
80.605812155206493
30
0
10
-26.511756353066293
20
80.605838632215438
30
0
10
-26.682557700849262
20
80.605726901294602
30
0
10
-26.836082732242218
20
80.60562647179944
30
0
10
-26.98954722729242
20
80.60541437943975
30
0
10
-27.142910438247032
20
80.604796226081447
30
0
10
-27.29089233387754
20
80.604199762919379
30
0
10
-27.43877992856379
20
80.60322523511276
30
0
10
-27.586541601914462
20
80.601506167579032
30
0
10
-27.74359716185571
20
80.599678974451336
30
0
10
-27.900510461945466
20
80.597010636250644
30
0
10
-28.057241198172434
20
80.592980882629703
30
0
10
-28.233445203810781
20
80.588450445608615
30
0
10
-28.409418461407991
20
80.582199274064351
30
0
10
-28.585080205602505
20
80.57344338225181
30
0
10
-28.782365467349926
20
80.563609662246449
30
0
10
-28.979257802307529
20
80.550616618482081
30
0
10
-29.175559829462742
20
80.533382820465178
30
0
10
-29.394609833624013
20
80.514151926204846
30
0
10
-29.612924790147645
20
80.489640470883742
30
0
10
-29.830059883853195
20
80.458501294688048
30
0
10
-30.064359342917871
20
80.424900590104272
30
0
10
-30.297285031926027
20
80.383582916783993
30
0
10
-30.528040773190121
20
80.333238985341723
30
0
10
-30.763464724115437
20
80.281876591581437
30
0
10
-30.996630042750315
20
80.221119041595898
30
0
10
-31.226483890477411
20
80.15012388448676
30
0
10
-31.448923200700772
20
80.081418862000916
30
0
10
-31.668261234576317
20
80.003126061239257
30
0
10
-31.883448158896989
20
79.914939577755334
30
0
10
-32.088738142242796
20
79.83080899322799
30
0
10
-32.290250073356013
20
79.737673864348565
30
0
10
-32.487068998994538
20
79.635592132522646
30
0
10
-32.677720742581315
20
79.536709059678728
30
0
10
-32.863968976947618
20
79.429431270745297
30
0
10
-33.045018929391006
20
79.31403848024884
30
0
10
-33.223460415967843
20
79.200308204164557
30
0
10
-33.396852329435667
20
79.078695074806873
30
0
10
-33.564481443339879
20
78.949614930341397
30
0
10
-33.730956494405156
20
78.821423453688453
30
0
10
-33.891747822138022
20
78.685867423137154
30
0
10
-34.046211650518913
20
78.543453404161085
30
0
10
-34.199998651348892
20
78.401663413041177
30
0
10
-34.347513482843745
20
78.253075402307871
30
0
10
-34.488186090836408
20
78.098265350504619
30
0
10
-34.628846213256651
20
77.943469039060204
30
0
10
-34.76266532670094
20
77.78245179098684
30
0
10
-34.889150635552937
20
77.615853271424712
30
0
10
-35.01619926606206
20
77.448512779889981
30
0
10
-35.135848622073148
20
77.275541192070392
30
0
10
-35.247700087190424
20
77.097641023580422
30
0
10
-35.360411552041057
20
76.918373022337434
30
0
10
-35.46520475269346
20
76.734100359654335
30
0
10
-35.56182294449097
20
76.545589232800936
30
0
10
-35.659943514307116
20
76.354146825947495
30
0
10
-35.749632861746903
20
76.158333116923259
30
0
10
-35.830849720381011
20
75.958984303879646
30
0
10
-35.915022587708123
20
75.752379893485809
30
0
10
-35.990095004953695
20
75.541978365338394
30
0
10
-36.056338875755543
20
75.328703790508953
30
0
10
-36.12585201159397
20
75.104903696831641
30
0
10
-36.185643685849371
20
74.877939977848229
30
0
10
-36.236474447973194
20
74.648789675194735
30
0
10
-36.28832365052854
20
74.415048138348268
30
0
10
-36.330849263698113
20
74.179031519679981
30
0
10
-36.365392900135241
20
73.941581686966856
30
0
10
-36.398766763687227
20
73.712172767270957
30
0
10
-36.424690094607861
20
73.481426057655796
30
0
10
-36.444750995085762
20
73.249870730601302
30
0
10
-36.463180379988891
20
73.037147365896999
30
0
10
-36.476662119821043
20
72.823741562035906
30
0
10
-36.486578259655595
20
72.609895164937996
30
0
10
-36.495389706163913
20
72.419872018788183
30
0
10
-36.501385741989822
20
72.22950097862153
30
0
10
-36.505555239575308
20
72.038875585986901
30
0
10
-36.50923606367607
20
71.870591871932632
30
0
10
-36.511493407535028
20
71.702109932785362
30
0
10
-36.512948889832181
20
71.533477308424963
30
0
10
-36.514252101637538
20
71.382486789843554
30
0
10
-36.514912454704941
20
71.23137546573841
30
0
10
-36.515286733502762
20
71.080178073014423
30
0
10
-36.515627581585065
20
70.942485685254454
30
0
10
-36.515731177572491
20
70.804721917568699
30
0
10
-36.515777307081777
20
70.666918293911309
30
0
10
-36.515822703294759
20
70.531305261255625
30
0
10
-36.515812445536106
20
70.395653629695175
30
0
10
-36.515812527009992
20
70.260000001359998
30
0
0
LINE
5
113
100
AcDbEntity
8
0
100
AcDbLine
10
-26.170000000000005
20
80.605812527010016
30
0
11
26.17000000146
21
80.605812527010002
31
0
0
SPLINE
5
114
100
AcDbEntity
8
0
100
AcDbSpline
70
0
71
3
72
92
73
88
74
0
42
0.000000001
43
0.0000000001
44
0.0000000001
40
0
40
0
40
0
40
0
40
0.50815835914382301
40
0.50815835914382301
40
0.50815835914382301
40
0.96480639450424477
40
0.96480639450424477
40
0.96480639450424477
40
1.4053273786121065
40
1.4053273786121065
40
1.4053273786121065
40
1.8734583543461485
40
1.8734583543461485
40
1.8734583543461485
40
2.399827803208042
40
2.399827803208042
40
2.399827803208042
40
2.9910544148142444
40
2.9910544148142444
40
2.9910544148142444
40
3.6507573347124964
40
3.6507573347124964
40
3.6507573347124964
40
4.3622817400846108
40
4.3622817400846108
40
4.3622817400846108
40
5.0873487517417502
40
5.0873487517417502
40
5.0873487517417502
40
5.7885878382549976
40
5.7885878382549976
40
5.7885878382549976
40
6.457673905346561
40
6.457673905346561
40
6.457673905346561
40
7.1058492240026538
40
7.1058492240026538
40
7.1058492240026538
40
7.7448079667033811
40
7.7448079667033811
40
7.7448079667033811
40
8.3794062461154777
40
8.3794062461154777
40
8.3794062461154777
40
9.0112413714667756
40
9.0112413714667756
40
9.0112413714667756
40
9.6430340649270878
40
9.6430340649270878
40
9.6430340649270878
40
10.277660543104611
40
10.277660543104611
40
10.277660543104611
40
10.9172126225371
40
10.9172126225371
40
10.9172126225371
40
11.56680417152492
40
11.56680417152492
40
11.56680417152492
40
12.240107407007955
40
12.240107407007955
40
12.240107407007955
40
12.94645914499255
40
12.94645914499255
40
12.94645914499255
40
13.666496745159707
40
13.666496745159707
40
13.666496745159707
40
14.361690066184385
40
14.361690066184385
40
14.361690066184385
40
15.000101865809373
40
15.000101865809373
40
15.000101865809373
40
15.567384854929138
40
15.567384854929138
40
15.567384854929138
40
16.068262029971677
40
16.068262029971677
40
16.068262029971677
40
16.516791497628031
40
16.516791497628031
40
16.516791497628031
40
16.925234180842661
40
16.925234180842661
40
16.925234180842661
40
17.327008465682699
40
17.327008465682699
40
17.327008465682699
40
17.327008465682699
10
36.515812527010006
20
70.260000000000019
30
0
10
36.515812151493662
20
70.431246672897686
30
0
10
36.51583885458902
20
70.602489519792911
30
0
10
36.515726191158791
20
70.773656977197405
30
0
10
36.515624948046003
20
70.927473758393504
30
0
10
36.515411160631203
20
71.081229659420714
30
0
10
36.514788254675999
20
71.234883731029896
30
0
10
36.514187347361975
20
71.383111332149539
30
0
10
36.513205708227218
20
71.531244169292719
30
0
10
36.511474573337395
20
71.679250473315946
30
0
10
36.509634938236367
20
71.836533186323351
30
0
10
36.506948912725747
20
71.993673008035501
30
0
10
36.502893568274281
20
72.150629412977935
30
0
10
36.498333713159994
20
72.327112193753862
30
0
10
36.492042642248236
20
72.503363082601808
30
0
10
36.483232542346201
20
72.679300638652421
30
0
10
36.473336896760671
20
72.876916524876435
30
0
10
36.46026320820858
20
73.074137105966358
30
0
10
36.44292504077567
20
73.270763148768197
30
0
10
36.423578753824721
20
73.490162566889822
30
0
10
36.398922952106702
20
73.708821751583528
30
0
10
36.367605760946368
20
73.926292040769539
30
0
10
36.333828517969003
20
74.160845221499812
30
0
10
36.292302240145688
20
74.394015388551466
30
0
10
36.241717561723178
20
74.625001283234681
30
0
10
36.190170093579404
20
74.860383585132411
30
0
10
36.129216122096985
20
75.093497675870651
30
0
10
36.058018654238047
20
75.323289061368058
30
0
10
35.989160953472769
20
75.545528797370565
30
0
10
35.910721958945743
20
75.764660628237394
30
0
10
35.822400398547153
20
75.979636258045616
30
0
10
35.738128533753759
20
76.184754885109172
30
0
10
35.644859591495745
20
76.386089711146866
30
0
10
35.542654266201069
20
76.582727271823529
30
0
10
35.443643133628548
20
76.773219377129806
30
0
10
35.336245461830686
20
76.959303233590802
30
0
10
35.220742466107829
20
77.140185443366306
30
0
10
35.106881837970583
20
77.318495641253421
30
0
10
34.985144750594344
20
77.491751067921825
30
0
10
34.855947948026682
20
77.659239384849158
30
0
10
34.727632826664625
20
77.8255847067622
30
0
10
34.591959457770493
20
77.986241363634988
30
0
10
34.4494350147422
20
78.14056639525316
30
0
10
34.307531148551725
20
78.294219468166688
30
0
10
34.158835739935192
20
78.441595933835771
30
0
10
34.003925250771275
20
78.582126577361024
30
0
10
33.8490251648672
20
78.722647783327801
30
0
10
33.687910833154923
20
78.856324086604005
30
0
10
33.521222303756289
20
78.982663603016718
30
0
10
33.353786124990961
20
79.109569791052081
30
0
10
33.180725632412553
20
79.229073229127408
30
0
10
33.002743702012339
20
79.340776459371213
30
0
10
32.823380379486395
20
79.453346665056486
30
0
10
32.639018928002756
20
79.557995111684733
30
0
10
32.45042598305178
20
79.654466716704931
30
0
10
32.25887257062665
20
79.752452699948094
30
0
10
32.062953772953456
20
79.842003112155439
30
0
10
31.863506389951247
20
79.923079008386466
30
0
10
31.656778687761697
20
80.00711437389748
30
0
10
31.446260094596209
20
80.082045250457682
30
0
10
31.232875093981335
20
80.148146905638555
30
0
10
31.009016276585299
20
80.21749310295364
30
0
10
30.78200275562002
20
80.277122057800312
30
0
10
30.552810383857299
20
80.327798663510777
30
0
10
30.319177313438992
20
80.379457149783519
30
0
10
30.083280141965261
20
80.421813015082094
30
0
10
29.845957188298055
20
80.456209546071861
30
0
10
29.616822859372746
20
80.489419254294006
30
0
10
29.386359441589981
20
80.515209412327408
30
0
10
29.155092259572243
20
80.535164099151615
30
0
10
28.942714359208463
20
80.553488940805181
30
0
10
28.729658631154749
20
80.566892632950839
30
0
10
28.516164757389674
20
80.576750858358409
30
0
10
28.326457357026214
20
80.585510727113814
30
0
10
28.136404004320092
20
80.591471156111908
30
0
10
27.94609751020095
20
80.595615858028836
30
0
10
27.778068182696252
20
80.599275383569619
30
0
10
27.60984151017621
20
80.60151939718601
30
0
10
27.441464793753212
20
80.602966218360237
30
0
10
27.290685475497156
20
80.604261829267259
30
0
10
27.139785837238861
20
80.604918172636275
30
0
10
26.988800487262502
20
80.605290135420091
30
0
10
26.851309272264572
20
80.605628854475214
30
0
10
26.713746981675563
20
80.605731753753972
30
0
10
26.576145018674552
20
80.605777563529017
30
0
10
26.44078960027851
20
80.60582262539539
30
0
10
26.305395794311014
20
80.605812446672871
30
0
10
26.170000001460004
20
80.605812527010002
30
0
0
LINE
5
115
100
AcDbEntity
8
0
100
AcDbLine
10
36.515812527010006
20
70.260000000000019
30
0
11
36.515812527009999
21
-70.730000001449994
31
0
0
SPLINE
5
116
100
AcDbEntity
8
0
100
AcDbSpline
70
0
71
3
72
92
73
88
74
0
42
0.000000001
43
0.0000000001
44
0.0000000001
40
0
40
0
40
0
40
0
40
0.50815835913721374
40
0.50815835913721374
40
0.50815835913721374
40
0.96480639449070671
40
0.96480639449070671
40
0.96480639449070671
40
1.4053273785933711
40
1.4053273785933711
40
1.4053273785933711
40
1.8734583543187548
40
1.8734583543187548
40
1.8734583543187548
40
2.3998278031719851
40
2.3998278031719851
40
2.3998278031719851
40
2.9910544147677944
40
2.9910544147677944
40
2.9910544147677944
40
3.6507573346539246
40
3.6507573346539246
40
3.6507573346539246
40
4.3622817400173748
40
4.3622817400173748
40
4.3622817400173748
40
5.0873487516727858
40
5.0873487516727858
40
5.0873487516727858
40
5.7885878381912326
40
5.7885878381912326
40
5.7885878381912326
40
6.4576739052828023
40
6.4576739052828023
40
6.4576739052828023
40
7.105849223938896
40
7.105849223938896
40
7.105849223938896
40
7.7448079666378939
40
7.7448079666378939
40
7.7448079666378939
40
8.3794062460482639
40
8.3794062460482639
40
8.3794062460482639
40
9.0112413713960979
40
9.0112413713960979
40
9.0112413713960979
40
9.64303406485468
40
9.64303406485468
40
9.64303406485468
40
10.277660543028743
40
10.277660543028743
40
10.277660543028743
40
10.917212622457766
40
10.917212622457766
40
10.917212622457766
40
11.566804171440396
40
11.566804171440396
40
11.566804171440396
40
12.240107406918233
40
12.240107406918233
40
12.240107406918233
40
12.946459144897632
40
12.946459144897632
40
12.946459144897632
40
13.666496745069994
40
13.666496745069994
40
13.666496745069994
40
14.361690066106803
40
14.361690066106803
40
14.361690066106803
40
15.000101865750855
40
15.000101865750855
40
15.000101865750855
40
15.567384854884482
40
15.567384854884482
40
15.567384854884482
40
16.068262029941753
40
16.068262029941753
40
16.068262029941753
40
16.516791497609194
40
16.516791497609194
40
16.516791497609194
40
16.925234180833531
40
16.925234180833531
40
16.925234180833531
40
17.3270084656913
40
17.3270084656913
40
17.3270084656913
40
17.3270084656913
10
26.170000000000005
20
-81.075812527010015
30
0
10
26.341246672895601
20
-81.075812151495086
30
0
10
26.512489519786765
20
-81.075838854589065
30
0
10
26.683656977189258
20
-81.075726191158296
30
0
10
26.837473758383243
20
-81.075624948045004
30
0
10
26.991229659410006
20
-81.075411160630395
30
0
10
27.144883731017391
20
-81.074788254674701
30
0
10
27.293111332135766
20
-81.07418734736018
30
0
10
27.44124416927643
20
-81.073205708224293
30
0
10
27.589250473297078
20
-81.071474573334385
30
0
10
27.746533186300709
20
-81.069634938233307
30
0
10
27.903673008009029
20
-81.066948912723888
30
0
10
28.060629412948039
20
-81.062893568272358
30
0
10
28.237112193720471
20
-81.058333713158021
30
0
10
28.413363082565418
20
-81.052042642244629
30
0
10
28.589300638612805
20
-81.043232542342395
30
0
10
28.786916524832968
20
-81.033336896756623
30
0
10
28.984137105918755
20
-81.02026320820606
30
0
10
29.180763148717155
20
-81.002925040775324
30
0
10
29.400162566834748
20
-80.983578753826819
30
0
10
29.618821751525303
20
-80.958922952112076
30
0
10
29.836292040707121
20
-80.927605760952929
30
0
10
30.070845221434318
20
-80.89382851797663
30
0
10
30.304015388481645
20
-80.852302240151857
30
0
10
30.535001283163446
20
-80.801717561732431
30
0
10
30.77038358506206
20
-80.750170093591265
30
0
10
31.00349767580413
20
-80.689216122115894
30
0
10
31.233289061302973
20
-80.618018654260354
30
0
10
31.455528797309054
20
-80.549160953497704
30
0
10
31.674660628177126
20
-80.470721958969676
30
0
10
31.889636257986144
20
-80.382400398571349
30
0
10
32.094754885048957
20
-80.298128533778822
30
0
10
32.296089711085578
20
-80.204859591522904
30
0
10
32.492727271764274
20
-80.102654266229564
30
0
10
32.683219377072504
20
-80.003643133658329
30
0
10
32.869303233538368
20
-79.896245461861014
30
0
10
33.050185443313516
20
-79.780742466139699
30
0
10
33.228495641199764
20
-79.666881838004258
30
0
10
33.401751067862271
20
-79.545144750630826
30
0
10
33.569239384788588
20
-79.415947948066531
30
0
10
33.735584706700649
20
-79.287632826707849
30
0
10
33.896241363577275
20
-79.151959457817583
30
0
10
34.050566395198047
20
-79.00943501479199
30
0
10
34.204219468113727
20
-78.867531148604598
30
0
10
34.351595933783805
20
-78.718835739989999
30
0
10
34.492126577310664
20
-78.563925250826642
30
0
10
34.632647783279424
20
-78.409025164922738
30
0
10
34.766324086558157
20
-78.247910833209176
30
0
10
34.892663602972746
20
-78.081222303811373
30
0
10
35.019569791009658
20
-77.913786125047309
30
0
10
35.139073229085881
20
-77.740725632472348
30
0
10
35.25077645933014
20
-77.562743702075792
30
0
10
35.363346665015861
20
-77.383380379553529
30
0
10
35.467995111644072
20
-77.199018928073826
30
0
10
35.564466716666296
20
-77.010425983123753
30
0
10
35.662452699911277
20
-76.81887257070008
30
0
10
35.752003112122566
20
-76.622953773025245
30
0
10
35.833079008356492
20
-76.423506390025352
30
0
10
35.917114373870511
20
-76.216778687838158
30
0
10
35.992045250432511
20
-76.006260094679234
30
0
10
36.058146905615558
20
-75.792875094068364
30
0
10
36.127493102932917
20
-75.569016276676493
30
0
10
36.187122057782275
20
-75.342002755712556
30
0
10
36.237798663493528
20
-75.112810383951938
30
0
10
36.289457149767784
20
-74.879177313532367
30
0
10
36.331813015065663
20
-74.64328014205806
30
0
10
36.366209546057476
20
-74.405957188388371
30
0
10
36.399419254281909
20
-74.176822859458312
30
0
10
36.425209412320022
20
-73.946359441668946
30
0
10
36.445164099147462
20
-73.715092259646852
30
0
10
36.46348894080424
20
-73.502714359276439
30
0
10
36.476892632951724
20
-73.289658631217932
30
0
10
36.486750858355933
20
-73.076164757447643
30
0
10
36.495510727108318
20
-72.886457357080602
30
0
10
36.501471156099299
20
-72.696404004370535
30
0
10
36.50561585801838
20
-72.506097510246491
30
0
10
36.509275383561118
20
-72.338068182736663
30
0
10
36.511519397186717
20
-72.169841510210787
30
0
10
36.512966218363466
20
-72.001464793782773
30
0
10
36.514261829272755
20
-71.850685475522937
30
0
10
36.51491817263873
20
-71.699785837261544
30
0
10
36.51529013542121
20
-71.54880048728181
30
0
10
36.515628854475125
20
-71.411309272280931
30
0
10
36.515731753754068
20
-71.273746981688731
30
0
10
36.515777563529227
20
-71.136145018683806
30
0
10
36.515822625395693
20
-71.000789600281152
30
0
10
36.515812446673181
20
-70.865395794306338
30
0
10
36.515812527009999
20
-70.730000001450009
30
0
0
LINE
5
117
100
AcDbEntity
8
0
100
AcDbLine
10
26.170000000000005
20
-81.075812527010015
30
0
11
-26.170000001369999
21
-81.075812527010015
31
0
0
LWPOLYLINE
5
118
100
AcDbEntity
8
0
100
AcDbPolyline
90
8
70
1
43
0.0
10
4.2299999999990003
20
-77.653331692479995
10
26.630000000010003
20
-77.653331692479995
42
0.41421356237259671
10
31.333331692480002
20
-72.950000000000003
10
31.333331692480005
20
-41.24999999999001
42
0.41421356237259638
10
26.630000000000003
20
-36.546668307520008
10
4.229999999995
20
-36.546668307520001
42
0.4142135623734699
10
-0.47333169248099716
20
-41.250000000010004
10
-0.47333169248070073
20
-72.950000000000003
42
0.41421356237311091
0
LWPOLYLINE
5
119
100
AcDbEntity
8
0
100
AcDbPolyline
90
4
70
1
43
0.0
10
-6.3999999999950008
20
69.338389750400012
10
6.3999999999919988
20
69.338389750400012
42
0.99999999999999989
10
6.4000000000079362
20
73.061610249600008
10
-6.3999999999920014
20
73.061610249599994
42
0.99999999999999989
0
CIRCLE
5
120
100
AcDbEntity
8
0
100
AcDbCircle
10
-8.4999999999999929
20
75.580000000000013
30
0
40
1.5486966815900249
210
0
220
-0
230
1
0
CIRCLE
5
121
100
AcDbEntity
8
0
100
AcDbCircle
10
8.9999999999999787
20
74
30
0
40
1.5486966815900072
210
-0
220
0
230
1
0
CIRCLE
5
122
100
AcDbEntity
8
0
100
AcDbCircle
10
32.700000000000003
20
75.169999999999987
30
0
40
1.5486966815900027
210
0
220
-0
230
1
0
CIRCLE
5
123
100
AcDbEntity
8
0
100
AcDbCircle
10
32.700000000000003
20
-75.900000000000006
30
0
40
1.5486966815899983
210
0
220
-0
230
1
0
CIRCLE
5
124
100
AcDbEntity
8
0
100
AcDbCircle
10
-6.8000000000000238
20
-68.899999999999991
30
0
40
1.5486966815899894
210
-0
220
0
230
1
0
CIRCLE
5
125
100
AcDbEntity
8
0
100
AcDbCircle
10
-32.699999999999996
20
-75.900000000000006
30
0
40
1.5486966815899983
210
0
220
-0
230
1
0
CIRCLE
5
126
100
AcDbEntity
8
0
100
AcDbCircle
10
-33.380000000000003
20
75.170000000000016
30
0
40
1.5486966815899939
210
0
220
-0
230
1
0
CIRCLE
5
127
100
AcDbEntity
8
0
100
AcDbCircle
10
10.579999999998
20
77.000000000000085
30
0
40
0.64629175808200268
210
0
220
-0
230
1
0
CIRCLE
5
128
100
AcDbEntity
8
0
100
AcDbCircle
10
-11.500000000000004
20
74.200000000000074
30
0
40
0.64629175808000205
210
0
220
-0
230
1
0
CIRCLE
5
129
100
AcDbEntity
8
0
100
AcDbCircle
10
-14.200000000000015
20
73.200000000000031
30
0
40
0.64629175808001316
210
0
220
-0
230
1
0
CIRCLE
5
130
100
AcDbEntity
8
0
100
AcDbCircle
10
-28.879999999999999
20
-41.000000000000043
30
0
40
0.64629175808000205
210
0
220
-0
230
1
0
CIRCLE
5
131
100
AcDbEntity
8
0
100
AcDbCircle
10
-28.880000000000003
20
-44.00000000000005
30
0
40
0.64629175807999761
210
0
220
-0
230
1
0
CIRCLE
5
132
100
AcDbEntity
8
0
100
AcDbCircle
10
-29.129999999999999
20
-50.299999999999969
30
0
40
0.64629175807999761
210
0
220
-0
230
1
0
CIRCLE
5
133
100
AcDbEntity
8
0
100
AcDbCircle
10
-25.599999999999994
20
-74.78000000000003
30
0
40
0.64629175807999317
210
0
220
-0
230
1
0
CIRCLE
5
134
100
AcDbEntity
8
0
100
AcDbCircle
10
-23.600000000000001
20
-74.780000000000044
30
0
40
0.64629175807999761
210
0
220
-0
230
1
0
CIRCLE
5
135
100
AcDbEntity
8
0
100
AcDbCircle
10
-21.600000000000001
20
-74.80637005949005
30
0
40
0.64629175807999317
210
0
220
-0
230
1
0
CIRCLE
5
136
100
AcDbEntity
8
0
100
AcDbCircle
10
6.6971572875250009
20
-79.250000000000057
30
0
40
0.64629175808400108
210
0
220
-0
230
1
0
CIRCLE
5
137
100
AcDbEntity
8
0
100
AcDbCircle
10
10.217157287527998
20
-78.650000000000077
30
0
40
0.64629175808200268
210
0
220
-0
230
1
0
CIRCLE
5
138
100
AcDbEntity
8
0
100
AcDbCircle
10
19.120000000000001
20
-78.569200571419969
30
0
40
0.64629175807999761
210
0
220
-0
230
1
0
CIRCLE
5
139
100
AcDbEntity
8
0
100
AcDbCircle
10
33.749999999999993
20
-66.870000000000005
30
0
40
0.6462917580800065
210
0
220
-0
230
1
0
CIRCLE
5
140
100
AcDbEntity
8
0
100
AcDbCircle
10
33.75
20
-64.819999999999908
30
0
40
0.6462917580800065
210
0
220
-0
230
1
0
CIRCLE
5
141
100
AcDbEntity
8
0
100
AcDbCircle
10
32.5
20
-63.070000000000007
30
0
40
0.64629175808000205
210
0
220
-0
230
1
0
CIRCLE
5
142
100
AcDbEntity
8
0
100
AcDbCircle
10
28.629999999999999
20
-33.399999999999956
30
0
40
0.64629175808000205
210
0
220
-0
230
1
0
CIRCLE
5
143
100
AcDbEntity
8
0
100
AcDbCircle
10
28.630000000000003
20
-36.10000000000003
30
0
40
0.64629175808000205
210
0
220
-0
230
1
0
CIRCLE
5
144
100
AcDbEntity
8
0
100
AcDbCircle
10
21.950000000000003
20
-78.569200571420012
30
0
40
0.58855673115999707
210
0
220
-0
230
1
0
CIRCLE
5
145
100
AcDbEntity
8
0
100
AcDbCircle
10
23.149999999999999
20
-78.569200571419998
30
0
40
0.58855673115999707
210
0
220
-0
230
1
0
CIRCLE
5
146
100
AcDbEntity
8
0
100
AcDbCircle
10
31.489547898090002
20
77.088081758459992
30
0
40
0.60991869112000163
210
0
220
-0
230
1
0
CIRCLE
5
147
100
AcDbEntity
8
0
100
AcDbCircle
10
-35.149999999999999
20
65.279999999999973
30
0
40
0.71961524226999085
210
-0
220
0
230
1
0
CIRCLE
5
148
100
AcDbEntity
8
0
100
AcDbCircle
10
-32.93
20
-71.900000000000063
30
0
40
0.6462917580800025
210
0
220
-0
230
1
0
CIRCLE
5
149
100
AcDbEntity
8
0
100
AcDbCircle
10
-32.93
20
-68.299999999999969
30
0
40
0.6462917580800025
210
0
220
-0
230
1
0
CIRCLE
5
150
100
AcDbEntity
8
0
100
AcDbCircle
10
-32.700000000000003
20
-64.135000000000005
30
0
40
1.3999999999999968
210
0
220
-0
230
1
0
CIRCLE
5
151
100
AcDbEntity
8
0
100
AcDbCircle
10
-33.380000000000003
20
70.164999999999992
30
0
40
1.3999999999999968
210
-0
220
0
230
1
0
CIRCLE
5
152
100
AcDbEntity
8
0
100
AcDbCircle
10
5.7000000000000011
20
77.365000000000009
30
0
40
1.4000000000000012
210
-0
220
0
230
1
0
CIRCLE
5
153
100
AcDbEntity
8
0
100
AcDbCircle
10
32.700000000000003
20
70.16500000000002
30
0
40
1.3999999999999968
210
0
220
-0
230
1
0
CIRCLE
5
154
100
AcDbEntity
8
0
100
AcDbCircle
10
10.099999999999998
20
-28.949999999999996
30
0
40
1.4986947776700044
210
0
220
-0
230
1
0
CIRCLE
5
155
100
AcDbEntity
8
0
100
AcDbCircle
10
-5.4999999999999858
20
-28.950000000000003
30
0
40
1.4986947776700044
210
0
220
-0
230
1
0
CIRCLE
5
156
100
AcDbEntity
8
0
100
AcDbCircle
10
-30.800000000000004
20
-28.95000000000001
30
0
40
1.4999999999999991
210
-0
220
0
230
1
0
CIRCLE
5
157
100
AcDbEntity
8
0
100
AcDbCircle
10
30.800000000000011
20
-28.950000000000003
30
0
40
1.4999999999999991
210
0
220
-0
230
1
0
CIRCLE
5
158
100
AcDbEntity
8
0
100
AcDbCircle
10
-6.3000000000000007
20
63.449999999999974
30
0
40
1.5000000000000022
210
-0
220
0
230
1
0
LWPOLYLINE
5
159
100
AcDbEntity
8
0
100
AcDbPolyline
90
40
70
1
43
0.0
10
-33.409702031249999
20
40.001702284150007
10
-32.957134681680003
20
40.001702278259998
10
-32.957134681680003
20
7.6382977217379988
10
-33.409702035709998
20
7.638297715847
42
2.8458963024085961
10
-33.409702031279998
20
5.7617022841529995
10
-32.957134681680003
20
5.7617022782619998
10
-32.957134681680003
20
-25.849999999970002
42
0.41421356238109458
10
-32.130000000000003
20
-26.677134681679998
10
32.129999999980001
20
-26.677134681679998
42
0.41421356237755008
10
32.957134681680003
20
-25.850000000000005
10
32.957134681680003
20
5.7617022782619998
10
33.409702035709998
20
5.7617022841530012
42
2.8458963024085175
10
33.409702031279998
20
7.6382977158470036
10
32.957134681680003
20
7.6382977217379997
10
32.957134681680003
20
40.001702278259998
10
33.409702035720002
20
40.001702284150007
42
2.8458963024571124
10
33.409702031249999
20
41.878297715849996
10
32.957134681680003
20
41.878297721739997
10
32.957134681680003
20
56.965463690850001
42
-0.039715915946312921
10
33.020946848569992
20
57.767554124330005
10
33.100845123169996
20
58.266518689310004
42
0.03971591583640207
10
33.107134681680009
20
58.345575630610007
10
33.107134681680002
20
60.399999999979997
42
0.41421356237404011
10
32.280000000009998
20
61.227134681679999
10
30.225575630560005
20
61.227134681680006
42
0.039715915948256263
10
30.146518689039876
20
61.220845123130758
10
29.647554123909998
20
61.140946848500015
42
-0.03971591592360707
10
28.845463690850004
20
61.077134681680008
10
-28.84546369068001
20
61.077134681680008
42
-0.03971591595483031
10
-29.64755412433
20
61.14094684857001
10
-30.146518689310003
20
61.220845123170008
42
0.039715915836419126
10
-30.225575630609999
20
61.227134681680006
10
-32.279999999979999
20
61.227134681680006
42
0.41421356237403856
10
-33.107134681679995
20
60.40000000001001
10
-33.107134681680002
20
58.345575630560006
42
0.039715915948189628
10
-33.100845123130746
20
58.266518689039884
10
-33.020946848500003
20
57.76755412391001
42
-0.039715915926123141
10
-32.957134681679996
20
56.9654636908
10
-32.957134681680003
20
41.878297721739997
10
-33.409702035720002
20
41.878297715850003
42
2.84589630245706
0
LINE
5
160
100
AcDbEntity
8
0
100
AcDbLine
10
-21.953494554953792
20
81.840000000000003
30
0
11
-18.046505445046208
21
81.840000000000003
31
0
0
LINE
5
161
100
AcDbEntity
8
0
100
AcDbLine
10
-20.928044079869998
20
81.840000000000003
30
0
11
-26.169997932468032
21
81.840000000000003
31
0
0
LINE
5
162
100
AcDbEntity
8
0
100
AcDbLine
10
-26.169997932468032
20
81.840000000000003
30
0
11
26.169999441779822
21
81.840000000000003
31
0
0
LINE
5
163
100
AcDbEntity
8
0
100
AcDbLine
10
26.169999441779822
20
81.840000000000003
30
0
11
-19.071955920410005
21
81.840000000000003
31
0
0
LINE
5
164
100
AcDbEntity
8
0
100
AcDbLine
10
-11.730000000000462
20
81.840000000006228
30
0
11
-11.180000000000241
21
81.840000000006711
31
0
0
LWPOLYLINE
5
165
100
AcDbEntity
8
0
100
AcDbPolyline
90
2
70
1
43
0.0
10
-11.180000000000241
20
81.840000000006711
10
-10.67999999996
20
81.840000000000003
0
LINE
5
166
100
AcDbEntity
8
0
100
AcDbLine
10
-10.67999999996
20
81.840000000000003
30
0
11
-10.129999999998178
21
81.840000000002988
31
0
0
LINE
5
167
100
AcDbEntity
8
0
100
AcDbLine
10
2.924999997492292
20
81.839999999969791
30
0
11
4.376834016873997
21
81.8399999999709
31
0
0
LWPOLYLINE
5
168
100
AcDbEntity
8
0
100
AcDbPolyline
90
2
70
1
43
0.0
10
2.924999997492292
20
81.839999999969791
10
-2.9250000000409999
20
81.840000000000003
0
LINE
5
169
100
AcDbEntity
8
0
100
AcDbLine
10
-2.9250000000409999
20
81.840000000000003
30
0
11
-4.3768340182291157
21
81.8399999999709
31
0
0
LINE
5
170
100
AcDbEntity
8
0
100
AcDbLine
10
20.959669646773737
20
81.840000000000003
30
0
11
24.990638201189206
21
81.840000000000003
31
0
0
LINE
5
171
100
AcDbEntity
8
0
100
AcDbLine
10
24.991291567726357
20
81.840000000000003
30
0
11
20.959582465472689
21
81.840000000000003
31
0
0
LINE
5
172
100
AcDbEntity
8
0
100
AcDbLine
10
15.008239324839106
20
81.839999794864895
30
0
11
19.040638201190919
21
81.839999947533101
31
0
0
LINE
5
173
100
AcDbEntity
8
0
100
AcDbLine
10
19.041291567903098
20
81.840000000000003
30
0
11
15.008724758801124
21
81.840000000000003
31
0
0
LWPOLYLINE
5
174
100
AcDbEntity
8
0
100
AcDbPolyline
90
4
70
1
43
0.0
10
-7.3500000000000014
20
75.579999999999998
10
-7.3500338280950004
20
75.588820627820809
42
0.99617224203455079
10
-9.6500000000000057
20
75.579999999999472
10
-9.6499661719050014
20
75.571179372179188
42
0.99617224203433441
0
ARC
5
175
100
AcDbEntity
8
0
100
AcDbCircle
10
-9.1836134437496071
20
75.579999999999998
30
0
40
0.24500000000000532
210
-0
220
0
230
1
100
AcDbArc
50
-38.606395358743981
51
38.6063953588421
0
LINE
5
176
100
AcDbEntity
8
0
100
AcDbLine
10
-8.9921579903831734
20
75.732871872416922
30
0
11
-9.0193951660683993
21
75.7669834832502
31
0
0
ARC
5
177
100
AcDbEntity
8
0
100
AcDbCircle
10
-8.9373428289111008
20
75.832499999999996
30
0
40
0.10500000000000066
210
0
220
-0
230
1
100
AcDbArc
50
81.393604639740474
51
218.60639535862092
0
LINE
5
178
100
AcDbEntity
8
0
100
AcDbLine
10
-8.9216300296139899
20
75.936317666792547
30
0
11
-8.8784699202285005
21
75.929785386138889
31
0
0
ELLIPSE
5
179
100
AcDbEntity
8
0
100
AcDbEllipse
10
-8.8418067218789993
20
76.172026608597207
30
0
11
0.2443734345876564
21
-0.017510695401987596
31
0.0
40
0.99999999987997368
41
4.6337122610927617
42
5.9813296837859369
0
LINE
5
180
100
AcDbEntity
8
0
100
AcDbLine
10
-8.6136880701846223
20
76.082657258518481
30
0
11
-8.5977651364515708
21
76.123301150042892
31
0
0
ARC
5
181
100
AcDbEntity
8
0
100
AcDbCircle
10
-8.5
20
76.08499999999998
30
0
40
0.1050000000000203
210
0
220
-0
230
1
100
AcDbArc
50
21.393604641185963
51
158.6063953587975
0
LINE
5
182
100
AcDbEntity
8
0
100
AcDbLine
10
-8.4022348635484185
20
76.123301150042863
30
0
11
-8.3863119298455011
21
76.082657258555699
31
0
0
ARC
5
183
100
AcDbEntity
8
0
100
AcDbCircle
10
-8.1581932781252071
20
76.172026608655798
30
0
40
0.24499999999999936
210
0
220
0
230
1
100
AcDbArc
50
201.39360464119954
51
278.60639535765574
0
LINE
5
184
100
AcDbEntity
8
0
100
AcDbLine
10
-8.1215300797762922
20
75.929785386138192
30
0
11
-8.078369970386202
21
75.936317666792505
31
0
0
ELLIPSE
5
185
100
AcDbEntity
8
0
100
AcDbEllipse
10
-8.0626571710907875
20
75.83250000002981
30
0
11
0.10479053321832776
21
0.0066290379908781139
31
0.0
40
0.99999999985759902
41
5.5462008848861721
42
7.9410158588071038
0
LINE
5
186
100
AcDbEntity
8
0
100
AcDbLine
10
-7.9806048339466029
20
75.766983483298347
30
0
11
-8.0078420096171001
21
75.732871872416595
31
0
0
ARC
5
187
100
AcDbEntity
8
0
100
AcDbCircle
10
-7.8163865562503929
20
75.579999999999998
30
0
40
0.24500000000001954
210
0
220
0
230
1
100
AcDbArc
50
141.39360464125755
51
218.60639535884184
0
LINE
5
188
100
AcDbEntity
8
0
100
AcDbLine
10
-8.0078420096168283
20
75.427128127583075
30
0
11
-7.9806048339316016
21
75.393016516749796
31
0
0
ARC
5
189
100
AcDbEntity
8
0
100
AcDbCircle
10
-8.062657171088901
20
75.327500000000001
30
0
40
0.10500000000000066
210
0
220
0
230
1
100
AcDbArc
50
-98.60639536025954
51
38.606395358620624
0
LINE
5
190
100
AcDbEntity
8
0
100
AcDbLine
10
-8.0783699703860119
20
75.223682333207449
30
0
11
-8.1215300797715013
21
75.230214613861108
31
0
0
ELLIPSE
5
191
100
AcDbEntity
8
0
100
AcDbEllipse
10
-8.1581932781210025
20
74.98797339140279
30
0
11
0.2443734345876564
21
-0.017510695401987596
31
0.0
40
0.99999999987997368
41
1.4921196075029524
42
2.8397370301961939
0
LINE
5
192
100
AcDbEntity
8
0
100
AcDbLine
10
-8.3863119298153794
20
75.077342741481516
30
0
11
-8.402234863548431
21
75.036698849957105
31
0
0
ARC
5
193
100
AcDbEntity
8
0
100
AcDbCircle
10
-8.5
20
75.075000000000017
30
0
40
0.1050000000000203
210
0
220
0
230
1
100
AcDbArc
50
201.39360464118559
51
338.60639535879716
0
LINE
5
194
100
AcDbEntity
8
0
100
AcDbLine
10
-8.5977651364515832
20
75.036698849957133
30
0
11
-8.6136880701545007
21
75.077342741444298
31
0
0
ARC
5
195
100
AcDbEntity
8
0
100
AcDbCircle
10
-8.8418067218748106
20
74.987973391344184
30
0
40
0.24500000000001926
210
0
220
-0
230
1
100
AcDbArc
50
21.393604641201303
51
98.60639535903087
0
LINE
5
196
100
AcDbEntity
8
0
100
AcDbLine
10
-8.8784699202295414
20
75.230214613860923
30
0
11
-8.9216300296214008
21
75.223682333206298
31
0
0
ELLIPSE
5
197
100
AcDbEntity
8
0
100
AcDbEllipse
10
-8.9373428289141028
20
75.327500000035343
30
0
11
0.0088897460361280402
21
-0.10462300140438258
31
0.0
40
0.999999999830819
41
3.9538145474223949
42
6.3486295212233141
0
LINE
5
198
100
AcDbEntity
8
0
100
AcDbLine
10
-9.01939516608698
20
75.393016516807464
30
0
11
-8.9921579903829105
21
75.427128127583401
31
0
0
LWPOLYLINE
5
199
100
AcDbEntity
8
0
100
AcDbPolyline
90
4
70
1
43
0.0
10
-5.1500000000000004
20
63.450000000000003
10
-5.1500338280949993
20
63.45882062782082
42
0.99617224203455079
10
-7.4500000000000028
20
63.449999999999484
10
-7.4499661719050003
20
63.441179372179192
42
0.99617224203433441
0
ARC
5
200
100
AcDbEntity
8
0
100
AcDbCircle
10
-6.9836134437496069
20
63.450000000000003
30
0
40
0.24500000000000532
210
-0
220
0
230
1
100
AcDbArc
50
-38.60639535874256
51
38.6063953588421
0
LINE
5
201
100
AcDbEntity
8
0
100
AcDbLine
10
-6.7921579903831732
20
63.602871872416927
30
0
11
-6.8193951660683991
21
63.636983483250205
31
0
0
ARC
5
202
100
AcDbEntity
8
0
100
AcDbCircle
10
-6.7373428289111006
20
63.702500000000001
30
0
40
0.10500000000000066
210
0
220
-0
230
1
100
AcDbArc
50
81.393604639740005
51
218.60639535862092
0
LINE
5
203
100
AcDbEntity
8
0
100
AcDbLine
10
-6.7216300296139888
20
63.806317666792552
30
0
11
-6.6784699202284994
21
63.7997853861389
31
0
0
ELLIPSE
5
204
100
AcDbEntity
8
0
100
AcDbEllipse
10
-6.6418067218789982
20
64.042026608597226
30
0
11
0.2443734345876564
21
-0.017510695401987596
31
0.0
40
0.99999999987997368
41
4.6337122610927572
42
5.9813296837859351
0
LINE
5
205
100
AcDbEntity
8
0
100
AcDbLine
10
-6.4136880701846213
20
63.952657258518492
30
0
11
-6.3977651364515697
21
63.993301150042903
31
0
0
ARC
5
206
100
AcDbEntity
8
0
100
AcDbCircle
10
-6.2999999999999998
20
63.954999999999984
30
0
40
0.1050000000000203
210
0
220
-0
230
1
100
AcDbArc
50
21.393604641185785
51
158.60639535879369
0
LINE
5
207
100
AcDbEntity
8
0
100
AcDbLine
10
-6.2022348635484175
20
63.993301150042868
30
0
11
-6.1863119298455
21
63.952657258555703
31
0
0
ARC
5
208
100
AcDbEntity
8
0
100
AcDbCircle
10
-5.958193278125206
20
64.042026608655803
30
0
40
0.24499999999999936
210
0
220
0
230
1
100
AcDbArc
50
201.39360464119954
51
278.60639535765574
0
LINE
5
209
100
AcDbEntity
8
0
100
AcDbLine
10
-5.9215300797762911
20
63.799785386138197
30
0
11
-5.8783699703862
21
63.806317666792509
31
0
0
ELLIPSE
5
210
100
AcDbEntity
8
0
100
AcDbEllipse
10
-5.8626571710907864
20
63.702500000029822
30
0
11
0.10479053321832776
21
0.0066290379908781139
31
0.0
40
0.99999999985759902
41
5.5462008848861695
42
7.9410158588070976
0
LINE
5
211
100
AcDbEntity
8
0
100
AcDbLine
10
-5.7806048339466019
20
63.636983483298351
30
0
11
-5.8078420096170991
21
63.602871872416607
31
0
0
ARC
5
212
100
AcDbEntity
8
0
100
AcDbCircle
10
-5.6163865562503936
20
63.450000000000003
30
0
40
0.24500000000001781
210
0
220
0
230
1
100
AcDbArc
50
141.39360464125599
51
218.60639535884081
0
LINE
5
213
100
AcDbEntity
8
0
100
AcDbLine
10
-5.8078420096168273
20
63.297128127583086
30
0
11
-5.7806048339316005
21
63.263016516749808
31
0
0
ARC
5
214
100
AcDbEntity
8
0
100
AcDbCircle
10
-5.8626571710888999
20
63.197500000000005
30
0
40
0.10500000000000066
210
0
220
0
230
1
100
AcDbArc
50
-98.606395360260606
51
38.606395358623644
0
LINE
5
215
100
AcDbEntity
8
0
100
AcDbLine
10
-5.8783699703860117
20
63.093682333207461
30
0
11
-5.9215300797715011
21
63.100214613861112
31
0
0
ELLIPSE
5
216
100
AcDbEntity
8
0
100
AcDbEllipse
10
-5.9581932781210023
20
62.857973391402794
30
0
11
0.2443734345876564
21
-0.017510695401987596
31
0.0
40
0.99999999987997368
41
1.4921196075029546
42
2.839737030196142
0
LINE
5
217
100
AcDbEntity
8
0
100
AcDbLine
10
-6.1863119298153793
20
62.947342741481521
30
0
11
-6.2022348635484299
21
62.90669884995711
31
0
0
ARC
5
218
100
AcDbEntity
8
0
100
AcDbCircle
10
-6.2999999999999998
20
62.945000000000029
30
0
40
0.1050000000000203
210
0
220
0
230
1
100
AcDbArc
50
201.39360464118559
51
338.60639535879363
0
LINE
5
219
100
AcDbEntity
8
0
100
AcDbLine
10
-6.3977651364515831
20
62.906698849957145
30
0
11
-6.4136880701544996
21
62.947342741444309
31
0
0
ARC
5
220
100
AcDbEntity
8
0
100
AcDbCircle
10
-6.6418067218748087
20
62.857973391344188
30
0
40
0.24500000000001926
210
0
220
-0
230
1
100
AcDbArc
50
21.393604641202931
51
98.606395359030628
0
LINE
5
221
100
AcDbEntity
8
0
100
AcDbLine
10
-6.6784699202295394
20
63.100214613860935
30
0
11
-6.7216300296213998
21
63.093682333206303
31
0
0
ELLIPSE
5
222
100
AcDbEntity
8
0
100
AcDbEllipse
10
-6.7373428289141026
20
63.197500000035348
30
0
11
0.0088897460361280402
21
-0.10462300140438258
31
0.0
40
0.999999999830819
41
3.9538145474223958
42
6.3486295212232982
0
LINE
5
223
100
AcDbEntity
8
0
100
AcDbLine
10
-6.8193951660869789
20
63.263016516807468
30
0
11
-6.7921579903829095
21
63.297128127583413
31
0
0
LWPOLYLINE
5
224
100
AcDbEntity
8
0
100
AcDbPolyline
90
4
70
1
43
0.0
10
10.150000000000002
20
74
10
10.149966171905
20
74.008820627820825
42
0.99617224203455079
10
7.849999999999997
20
73.999999999999474
10
7.8500338280950004
20
73.991179372179189
42
0.99617224203432742
0
ARC
5
225
100
AcDbEntity
8
0
100
AcDbCircle
10
8.3163865562503929
20
74
30
0
40
0.24500000000000532
210
-0
220
0
230
1
100
AcDbArc
50
-38.606395358743981
51
38.6063953588421
0
LINE
5
226
100
AcDbEntity
8
0
100
AcDbLine
10
8.5078420096168266
20
74.152871872416924
30
0
11
8.4806048339316007
21
74.186983483250202
31
0
0
ARC
5
227
100
AcDbEntity
8
0
100
AcDbCircle
10
8.5626571710888992
20
74.252499999999998
30
0
40
0.10500000000000066
210
0
220
-0
230
1
100
AcDbArc
50
81.393604639739522
51
218.60639535862092
0
LINE
5
228
100
AcDbEntity
8
0
100
AcDbLine
10
8.5783699703860119
20
74.356317666792549
30
0
11
8.6215300797715013
21
74.34978538613889
31
0
0
ELLIPSE
5
229
100
AcDbEntity
8
0
100
AcDbEllipse
10
8.6581932781210025
20
74.592026608597223
30
0
11
0.2443734345876564
21
-0.017510695401987596
31
0.0
40
0.99999999987997368
41
4.6337122610927581
42
5.981329683785936
0
LINE
5
230
100
AcDbEntity
8
0
100
AcDbLine
10
8.8863119298153794
20
74.502657258518482
30
0
11
8.902234863548431
21
74.543301150042907
31
0
0
ARC
5
231
100
AcDbEntity
8
0
100
AcDbCircle
10
9
20
74.504999999999981
30
0
40
0.1050000000000203
210
0
220
-0
230
1
100
AcDbArc
50
21.393604641185593
51
158.60639535878991
0
LINE
5
232
100
AcDbEntity
8
0
100
AcDbLine
10
9.0977651364515832
20
74.543301150042865
30
0
11
9.1136880701544989
21
74.502657258555701
31
0
0
ARC
5
233
100
AcDbEntity
8
0
100
AcDbCircle
10
9.3418067218747947
20
74.5920266086558
30
0
40
0.24499999999999936
210
0
220
0
230
1
100
AcDbArc
50
201.3936046411994
51
278.60639535765534
0
LINE
5
234
100
AcDbEntity
8
0
100
AcDbLine
10
9.3784699202237078
20
74.349785386138194
30
0
11
9.4216300296137998
21
74.356317666792506
31
0
0
ELLIPSE
5
235
100
AcDbEntity
8
0
100
AcDbEllipse
10
9.4373428289092143
20
74.252500000029812
30
0
11
0.10479053321832776
21
0.0066290379908781139
31
0.0
40
0.99999999985759902
41
5.5462008848859821
42
7.9410158588071216
0
LINE
5
236
100
AcDbEntity
8
0
100
AcDbLine
10
9.519395166053398
20
74.186983483298349
30
0
11
9.4921579903829016
21
74.152871872416611
31
0
0
ARC
5
237
100
AcDbEntity
8
0
100
AcDbCircle
10
9.6836134437496071
20
74
30
0
40
0.24500000000001781
210
0
220
0
230
1
100
AcDbArc
50
141.39360464125468
51
218.60639535884209
0
LINE
5
238
100
AcDbEntity
8
0
100
AcDbLine
10
9.4921579903831734
20
73.847128127583076
30
0
11
9.5193951660683993
21
73.813016516749798
31
0
0
ARC
5
239
100
AcDbEntity
8
0
100
AcDbCircle
10
9.4373428289111008
20
73.747500000000002
30
0
40
0.10500000000000066
210
0
220
0
230
1
100
AcDbArc
50
-98.606395360260507
51
38.606395358620922
0
LINE
5
240
100
AcDbEntity
8
0
100
AcDbLine
10
9.4216300296139881
20
73.643682333207451
30
0
11
9.3784699202284987
21
73.65021461386111
31
0
0
ELLIPSE
5
241
100
AcDbEntity
8
0
100
AcDbEllipse
10
9.3418067218789975
20
73.407973391402791
30
0
11
0.2443734345876564
21
-0.017510695401987596
31
0.0
40
0.99999999987997368
41
1.4921196075029639
42
2.8397370301961971
0
LINE
5
242
100
AcDbEntity
8
0
100
AcDbLine
10
9.1136880701846206
20
73.497342741481518
30
0
11
9.0977651364515708
21
73.456698849957107
31
0
0
ARC
5
243
100
AcDbEntity
8
0
100
AcDbCircle
10
9
20
73.495000000000033
30
0
40
0.1050000000000203
210
0
220
0
230
1
100
AcDbArc
50
201.39360464119284
51
338.60639535879028
0
LINE
5
244
100
AcDbEntity
8
0
100
AcDbLine
10
8.9022348635484168
20
73.456698849957135
30
0
11
8.8863119298455011
21
73.497342741444299
31
0
0
ARC
5
245
100
AcDbEntity
8
0
100
AcDbCircle
10
8.6581932781251911
20
73.407973391344186
30
0
40
0.24500000000001926
210
0
220
-0
230
1
100
AcDbArc
50
21.393604641201303
51
98.606395359030373
0
LINE
5
246
100
AcDbEntity
8
0
100
AcDbLine
10
8.6215300797704604
20
73.650214613860939
30
0
11
8.5783699703786009
21
73.6436823332063
31
0
0
ELLIPSE
5
247
100
AcDbEntity
8
0
100
AcDbEllipse
10
8.5626571710858972
20
73.747500000035345
30
0
11
0.0088897460361280402
21
-0.10462300140438258
31
0.0
40
0.999999999830819
41
3.9538145474223025
42
6.3486295212233355
0
LINE
5
248
100
AcDbEntity
8
0
100
AcDbLine
10
8.4806048339130218
20
73.813016516807465
30
0
11
8.5078420096170895
21
73.847128127583403
31
0
0
ENDSEC
0
SECTION
2
OBJECTS
0
DICTIONARY
5
C
100
AcDbDictionary
3
ACAD_GROUP
350
D
3
ACAD_MLINESTYLE
350
17
0
DICTIONARY
5
D
100
AcDbDictionary
0
DICTIONARY
5
1A
330
C
100
AcDbDictionary
0
DICTIONARY
5
17
100
AcDbDictionary
0
ENDSEC
0
EOF
