%TF.GenerationSoftware,KiCad,Pcbnew,8.0.8*%
%TF.CreationDate,2025-05-20T22:03:47-04:00*%
%TF.ProjectId,Breakout-Flex-PCB-Testing-Stand,42726561-6b6f-4757-942d-466c65782d50,rev?*%
%TF.SameCoordinates,Original*%
%TF.FileFunction,Copper,L1,Top*%
%TF.FilePolarity,Positive*%
%FSLAX46Y46*%
G04 Gerber Fmt 4.6, Leading zero omitted, Abs format (unit mm)*
G04 Created by KiCad (PCBNEW 8.0.8) date 2025-05-20 22:03:47*
%MOMM*%
%LPD*%
G01*
G04 APERTURE LIST*
%TA.AperFunction,SMDPad,CuDef*%
%ADD10R,0.410000X0.840000*%
%TD*%
%TA.AperFunction,SMDPad,CuDef*%
%ADD11R,0.520000X1.000000*%
%TD*%
%TA.AperFunction,ComponentPad*%
%ADD12R,1.700000X1.700000*%
%TD*%
%TA.AperFunction,ComponentPad*%
%ADD13O,1.700000X1.700000*%
%TD*%
%TA.AperFunction,Conductor*%
%ADD14C,0.381000*%
%TD*%
G04 APERTURE END LIST*
D10*
%TO.P,J1,1_1,1*%
%TO.N,Net-(J1-1)*%
X137141138Y-86150000D03*
%TO.P,J1,1_2,1__1*%
X136531138Y-86150000D03*
D11*
%TO.P,J1,1_3,1__2*%
X135866138Y-86150000D03*
%TD*%
D12*
%TO.P,J7,1,Pin_1*%
%TO.N,Net-(J1-1)*%
X273100000Y-86300000D03*
D13*
%TO.P,J7,2,Pin_2*%
%TO.N,Net-(J2-1)*%
X273100000Y-83760000D03*
%TO.P,J7,3,Pin_3*%
%TO.N,Net-(J3-1)*%
X273100000Y-81220000D03*
%TO.P,J7,4,Pin_4*%
%TO.N,Net-(J4-1)*%
X273100000Y-78680000D03*
%TO.P,J7,5,Pin_5*%
%TO.N,Net-(J5-1)*%
X273100000Y-76140000D03*
%TO.P,J7,6,Pin_6*%
%TO.N,Net-(J6-1)*%
X273100000Y-73600000D03*
%TD*%
D10*
%TO.P,J3,1_1,1*%
%TO.N,Net-(J3-1)*%
X137136138Y-81150000D03*
%TO.P,J3,1_2,1__1*%
X136526138Y-81150000D03*
D11*
%TO.P,J3,1_3,1__2*%
X135861138Y-81150000D03*
%TD*%
D10*
%TO.P,J6,1_1,1*%
%TO.N,Net-(J6-1)*%
X137141138Y-73650000D03*
%TO.P,J6,1_2,1__1*%
X136531138Y-73650000D03*
D11*
%TO.P,J6,1_3,1__2*%
X135866138Y-73650000D03*
%TD*%
D10*
%TO.P,J4,1_1,1*%
%TO.N,Net-(J4-1)*%
X137141138Y-78650000D03*
%TO.P,J4,1_2,1__1*%
X136531138Y-78650000D03*
D11*
%TO.P,J4,1_3,1__2*%
X135866138Y-78650000D03*
%TD*%
D10*
%TO.P,J5,1_1,1*%
%TO.N,Net-(J5-1)*%
X137126138Y-76150000D03*
%TO.P,J5,1_2,1__1*%
X136516138Y-76150000D03*
D11*
%TO.P,J5,1_3,1__2*%
X135851138Y-76150000D03*
%TD*%
D10*
%TO.P,J2,1_1,1*%
%TO.N,Net-(J2-1)*%
X137126138Y-83650000D03*
%TO.P,J2,1_2,1__1*%
X136516138Y-83650000D03*
D11*
%TO.P,J2,1_3,1__2*%
X135851138Y-83650000D03*
%TD*%
D14*
%TO.N,Net-(J6-1)*%
X269819000Y-74681000D02*
X270900000Y-73600000D01*
X139338000Y-78438000D02*
X269218684Y-78438000D01*
X138781000Y-74181000D02*
X138781000Y-77881000D01*
X137141138Y-73650000D02*
X138250000Y-73650000D01*
X138250000Y-73650000D02*
X138781000Y-74181000D01*
X138781000Y-77881000D02*
X139338000Y-78438000D01*
X270900000Y-73600000D02*
X273100000Y-73600000D01*
X269218684Y-78438000D02*
X269819000Y-77837684D01*
X135866138Y-73650000D02*
X137141138Y-73650000D01*
X269819000Y-77837684D02*
X269819000Y-74681000D01*
%TO.N,Net-(J3-1)*%
X138900000Y-80181000D02*
X269700000Y-80181000D01*
X269700000Y-80181000D02*
X270739000Y-81220000D01*
X135861138Y-81150000D02*
X137136138Y-81150000D01*
X137136138Y-81150000D02*
X137931000Y-81150000D01*
X137931000Y-81150000D02*
X138900000Y-80181000D01*
X270739000Y-81220000D02*
X273100000Y-81220000D01*
%TO.N,Net-(J1-1)*%
X269218684Y-81343000D02*
X269819000Y-81943316D01*
X138781000Y-85519000D02*
X138781000Y-81943316D01*
X138781000Y-81943316D02*
X139381316Y-81343000D01*
X269819000Y-85219000D02*
X270900000Y-86300000D01*
X135866138Y-86150000D02*
X137141138Y-86150000D01*
X139381316Y-81343000D02*
X269218684Y-81343000D01*
X137141138Y-86150000D02*
X138150000Y-86150000D01*
X269819000Y-81943316D02*
X269819000Y-85219000D01*
X270900000Y-86300000D02*
X273100000Y-86300000D01*
X138150000Y-86150000D02*
X138781000Y-85519000D01*
%TO.N,Net-(J5-1)*%
X270400000Y-76600000D02*
X270860000Y-76140000D01*
X270860000Y-76140000D02*
X273100000Y-76140000D01*
X270400000Y-78078342D02*
X270400000Y-76600000D01*
X137126138Y-76150000D02*
X137850000Y-76150000D01*
X139040658Y-79019000D02*
X269459342Y-79019000D01*
X137850000Y-76150000D02*
X138200000Y-76500000D01*
X138200000Y-78178342D02*
X139040658Y-79019000D01*
X138200000Y-76500000D02*
X138200000Y-78178342D01*
X135851138Y-76150000D02*
X137126138Y-76150000D01*
X269459342Y-79019000D02*
X270400000Y-78078342D01*
%TO.N,Net-(J2-1)*%
X138200000Y-83300000D02*
X138200000Y-81702658D01*
X270400000Y-81702658D02*
X270400000Y-83300000D01*
X270400000Y-83300000D02*
X270860000Y-83760000D01*
X270860000Y-83760000D02*
X273100000Y-83760000D01*
X138200000Y-81702658D02*
X139140658Y-80762000D01*
X137850000Y-83650000D02*
X138200000Y-83300000D01*
X139140658Y-80762000D02*
X269459342Y-80762000D01*
X269459342Y-80762000D02*
X270400000Y-81702658D01*
X135851138Y-83650000D02*
X137126138Y-83650000D01*
X137126138Y-83650000D02*
X137850000Y-83650000D01*
%TO.N,Net-(J4-1)*%
X138800000Y-79600000D02*
X269700000Y-79600000D01*
X137141138Y-78650000D02*
X137850000Y-78650000D01*
X269700000Y-79600000D02*
X270620000Y-78680000D01*
X135866138Y-78650000D02*
X137141138Y-78650000D01*
X137850000Y-78650000D02*
X138800000Y-79600000D01*
X270620000Y-78680000D02*
X273100000Y-78680000D01*
%TD*%
M02*
