%TF.GenerationSoftware,KiCad,Pcbnew,8.0.8*%
%TF.CreationDate,2025-05-20T22:03:44-04:00*%
%TF.ProjectId,Breakout-Flex-PCB-Testing-Stand,42726561-6b6f-4757-942d-466c65782d50,rev?*%
%TF.SameCoordinates,Original*%
%TF.FileFunction,Drillmap*%
%TF.FilePolarity,Positive*%
%FSLAX45Y45*%
G04 Gerber Fmt 4.5, Leading zero omitted, Abs format (unit mm)*
G04 Created by KiCad (PCBNEW 8.0.8) date 2025-05-20 22:03:44*
%MOMM*%
%LPD*%
G01*
G04 APERTURE LIST*
%ADD10C,0.050000*%
%ADD11C,0.200000*%
%ADD12C,0.100000*%
G04 APERTURE END LIST*
D10*
X27500000Y-6700000D02*
X27700000Y-6900000D01*
X26800000Y-9200000D02*
X26800000Y-8500000D01*
X13200000Y-8700000D02*
X13200000Y-7300000D01*
X14300000Y-8300000D02*
X26600000Y-8300000D01*
X27000000Y-6700000D02*
X26800000Y-6900000D01*
X27500000Y-6700000D02*
X27000000Y-6700000D01*
X13400000Y-7100000D02*
X13200000Y-7300000D01*
X27500000Y-9400000D02*
X27700000Y-9200000D01*
X14100000Y-8700000D02*
X14100000Y-8500000D01*
X13400000Y-8900000D02*
X13200000Y-8700000D01*
X27500000Y-9400000D02*
X27000000Y-9400000D01*
X13900000Y-8900000D02*
X14100000Y-8700000D01*
X13900000Y-8900000D02*
X13400000Y-8900000D01*
X14300000Y-7700000D02*
X14100000Y-7500000D01*
X14100000Y-7500000D02*
X14100000Y-7300000D01*
X14300000Y-7700000D02*
X26600000Y-7700000D01*
X14100000Y-8500000D02*
X14300000Y-8300000D01*
X13900000Y-7100000D02*
X13400000Y-7100000D01*
X27700000Y-9200000D02*
X27700000Y-6900000D01*
X26800000Y-7500000D02*
X26800000Y-6900000D01*
X27000000Y-9400000D02*
X26800000Y-9200000D01*
X26600000Y-7700000D02*
X26800000Y-7500000D01*
X26600000Y-8300000D02*
X26800000Y-8500000D01*
X14100000Y-7300000D02*
X13900000Y-7100000D01*
D11*
D12*
X27260000Y-7310000D02*
X27360000Y-7410000D01*
X27360000Y-7310000D02*
X27260000Y-7410000D01*
X27260000Y-7564000D02*
X27360000Y-7664000D01*
X27360000Y-7564000D02*
X27260000Y-7664000D01*
X27260000Y-7818000D02*
X27360000Y-7918000D01*
X27360000Y-7818000D02*
X27260000Y-7918000D01*
X27260000Y-8072000D02*
X27360000Y-8172000D01*
X27360000Y-8072000D02*
X27260000Y-8172000D01*
X27260000Y-8326000D02*
X27360000Y-8426000D01*
X27360000Y-8326000D02*
X27260000Y-8426000D01*
X27260000Y-8580000D02*
X27360000Y-8680000D01*
X27360000Y-8580000D02*
X27260000Y-8680000D01*
D11*
X13458277Y-9713984D02*
X13458277Y-9513984D01*
X13458277Y-9513984D02*
X13505896Y-9513984D01*
X13505896Y-9513984D02*
X13534467Y-9523508D01*
X13534467Y-9523508D02*
X13553515Y-9542555D01*
X13553515Y-9542555D02*
X13563039Y-9561603D01*
X13563039Y-9561603D02*
X13572562Y-9599698D01*
X13572562Y-9599698D02*
X13572562Y-9628270D01*
X13572562Y-9628270D02*
X13563039Y-9666365D01*
X13563039Y-9666365D02*
X13553515Y-9685412D01*
X13553515Y-9685412D02*
X13534467Y-9704460D01*
X13534467Y-9704460D02*
X13505896Y-9713984D01*
X13505896Y-9713984D02*
X13458277Y-9713984D01*
X13658277Y-9713984D02*
X13658277Y-9580650D01*
X13658277Y-9618746D02*
X13667801Y-9599698D01*
X13667801Y-9599698D02*
X13677324Y-9590174D01*
X13677324Y-9590174D02*
X13696372Y-9580650D01*
X13696372Y-9580650D02*
X13715420Y-9580650D01*
X13782086Y-9713984D02*
X13782086Y-9580650D01*
X13782086Y-9513984D02*
X13772562Y-9523508D01*
X13772562Y-9523508D02*
X13782086Y-9533031D01*
X13782086Y-9533031D02*
X13791610Y-9523508D01*
X13791610Y-9523508D02*
X13782086Y-9513984D01*
X13782086Y-9513984D02*
X13782086Y-9533031D01*
X13905896Y-9713984D02*
X13886848Y-9704460D01*
X13886848Y-9704460D02*
X13877324Y-9685412D01*
X13877324Y-9685412D02*
X13877324Y-9513984D01*
X14010658Y-9713984D02*
X13991610Y-9704460D01*
X13991610Y-9704460D02*
X13982086Y-9685412D01*
X13982086Y-9685412D02*
X13982086Y-9513984D01*
X14239229Y-9713984D02*
X14239229Y-9513984D01*
X14239229Y-9513984D02*
X14305896Y-9656841D01*
X14305896Y-9656841D02*
X14372562Y-9513984D01*
X14372562Y-9513984D02*
X14372562Y-9713984D01*
X14553515Y-9713984D02*
X14553515Y-9609222D01*
X14553515Y-9609222D02*
X14543991Y-9590174D01*
X14543991Y-9590174D02*
X14524943Y-9580650D01*
X14524943Y-9580650D02*
X14486848Y-9580650D01*
X14486848Y-9580650D02*
X14467801Y-9590174D01*
X14553515Y-9704460D02*
X14534467Y-9713984D01*
X14534467Y-9713984D02*
X14486848Y-9713984D01*
X14486848Y-9713984D02*
X14467801Y-9704460D01*
X14467801Y-9704460D02*
X14458277Y-9685412D01*
X14458277Y-9685412D02*
X14458277Y-9666365D01*
X14458277Y-9666365D02*
X14467801Y-9647317D01*
X14467801Y-9647317D02*
X14486848Y-9637793D01*
X14486848Y-9637793D02*
X14534467Y-9637793D01*
X14534467Y-9637793D02*
X14553515Y-9628270D01*
X14648753Y-9580650D02*
X14648753Y-9780650D01*
X14648753Y-9590174D02*
X14667801Y-9580650D01*
X14667801Y-9580650D02*
X14705896Y-9580650D01*
X14705896Y-9580650D02*
X14724943Y-9590174D01*
X14724943Y-9590174D02*
X14734467Y-9599698D01*
X14734467Y-9599698D02*
X14743991Y-9618746D01*
X14743991Y-9618746D02*
X14743991Y-9675889D01*
X14743991Y-9675889D02*
X14734467Y-9694936D01*
X14734467Y-9694936D02*
X14724943Y-9704460D01*
X14724943Y-9704460D02*
X14705896Y-9713984D01*
X14705896Y-9713984D02*
X14667801Y-9713984D01*
X14667801Y-9713984D02*
X14648753Y-9704460D01*
X14829705Y-9694936D02*
X14839229Y-9704460D01*
X14839229Y-9704460D02*
X14829705Y-9713984D01*
X14829705Y-9713984D02*
X14820182Y-9704460D01*
X14820182Y-9704460D02*
X14829705Y-9694936D01*
X14829705Y-9694936D02*
X14829705Y-9713984D01*
X14829705Y-9590174D02*
X14839229Y-9599698D01*
X14839229Y-9599698D02*
X14829705Y-9609222D01*
X14829705Y-9609222D02*
X14820182Y-9599698D01*
X14820182Y-9599698D02*
X14829705Y-9590174D01*
X14829705Y-9590174D02*
X14829705Y-9609222D01*
D12*
X13097500Y-9992500D02*
X13197500Y-10092500D01*
X13197500Y-9992500D02*
X13097500Y-10092500D01*
D11*
X13563039Y-10133984D02*
X13448753Y-10133984D01*
X13505896Y-10133984D02*
X13505896Y-9933984D01*
X13505896Y-9933984D02*
X13486848Y-9962555D01*
X13486848Y-9962555D02*
X13467801Y-9981603D01*
X13467801Y-9981603D02*
X13448753Y-9991127D01*
X13648753Y-10114936D02*
X13658277Y-10124460D01*
X13658277Y-10124460D02*
X13648753Y-10133984D01*
X13648753Y-10133984D02*
X13639229Y-10124460D01*
X13639229Y-10124460D02*
X13648753Y-10114936D01*
X13648753Y-10114936D02*
X13648753Y-10133984D01*
X13782086Y-9933984D02*
X13801134Y-9933984D01*
X13801134Y-9933984D02*
X13820182Y-9943508D01*
X13820182Y-9943508D02*
X13829705Y-9953031D01*
X13829705Y-9953031D02*
X13839229Y-9972079D01*
X13839229Y-9972079D02*
X13848753Y-10010174D01*
X13848753Y-10010174D02*
X13848753Y-10057793D01*
X13848753Y-10057793D02*
X13839229Y-10095889D01*
X13839229Y-10095889D02*
X13829705Y-10114936D01*
X13829705Y-10114936D02*
X13820182Y-10124460D01*
X13820182Y-10124460D02*
X13801134Y-10133984D01*
X13801134Y-10133984D02*
X13782086Y-10133984D01*
X13782086Y-10133984D02*
X13763039Y-10124460D01*
X13763039Y-10124460D02*
X13753515Y-10114936D01*
X13753515Y-10114936D02*
X13743991Y-10095889D01*
X13743991Y-10095889D02*
X13734467Y-10057793D01*
X13734467Y-10057793D02*
X13734467Y-10010174D01*
X13734467Y-10010174D02*
X13743991Y-9972079D01*
X13743991Y-9972079D02*
X13753515Y-9953031D01*
X13753515Y-9953031D02*
X13763039Y-9943508D01*
X13763039Y-9943508D02*
X13782086Y-9933984D01*
X13972562Y-9933984D02*
X13991610Y-9933984D01*
X13991610Y-9933984D02*
X14010658Y-9943508D01*
X14010658Y-9943508D02*
X14020182Y-9953031D01*
X14020182Y-9953031D02*
X14029705Y-9972079D01*
X14029705Y-9972079D02*
X14039229Y-10010174D01*
X14039229Y-10010174D02*
X14039229Y-10057793D01*
X14039229Y-10057793D02*
X14029705Y-10095889D01*
X14029705Y-10095889D02*
X14020182Y-10114936D01*
X14020182Y-10114936D02*
X14010658Y-10124460D01*
X14010658Y-10124460D02*
X13991610Y-10133984D01*
X13991610Y-10133984D02*
X13972562Y-10133984D01*
X13972562Y-10133984D02*
X13953515Y-10124460D01*
X13953515Y-10124460D02*
X13943991Y-10114936D01*
X13943991Y-10114936D02*
X13934467Y-10095889D01*
X13934467Y-10095889D02*
X13924943Y-10057793D01*
X13924943Y-10057793D02*
X13924943Y-10010174D01*
X13924943Y-10010174D02*
X13934467Y-9972079D01*
X13934467Y-9972079D02*
X13943991Y-9953031D01*
X13943991Y-9953031D02*
X13953515Y-9943508D01*
X13953515Y-9943508D02*
X13972562Y-9933984D01*
X14163039Y-9933984D02*
X14182086Y-9933984D01*
X14182086Y-9933984D02*
X14201134Y-9943508D01*
X14201134Y-9943508D02*
X14210658Y-9953031D01*
X14210658Y-9953031D02*
X14220182Y-9972079D01*
X14220182Y-9972079D02*
X14229705Y-10010174D01*
X14229705Y-10010174D02*
X14229705Y-10057793D01*
X14229705Y-10057793D02*
X14220182Y-10095889D01*
X14220182Y-10095889D02*
X14210658Y-10114936D01*
X14210658Y-10114936D02*
X14201134Y-10124460D01*
X14201134Y-10124460D02*
X14182086Y-10133984D01*
X14182086Y-10133984D02*
X14163039Y-10133984D01*
X14163039Y-10133984D02*
X14143991Y-10124460D01*
X14143991Y-10124460D02*
X14134467Y-10114936D01*
X14134467Y-10114936D02*
X14124943Y-10095889D01*
X14124943Y-10095889D02*
X14115420Y-10057793D01*
X14115420Y-10057793D02*
X14115420Y-10010174D01*
X14115420Y-10010174D02*
X14124943Y-9972079D01*
X14124943Y-9972079D02*
X14134467Y-9953031D01*
X14134467Y-9953031D02*
X14143991Y-9943508D01*
X14143991Y-9943508D02*
X14163039Y-9933984D01*
X14315420Y-10133984D02*
X14315420Y-10000650D01*
X14315420Y-10019698D02*
X14324943Y-10010174D01*
X14324943Y-10010174D02*
X14343991Y-10000650D01*
X14343991Y-10000650D02*
X14372563Y-10000650D01*
X14372563Y-10000650D02*
X14391610Y-10010174D01*
X14391610Y-10010174D02*
X14401134Y-10029222D01*
X14401134Y-10029222D02*
X14401134Y-10133984D01*
X14401134Y-10029222D02*
X14410658Y-10010174D01*
X14410658Y-10010174D02*
X14429705Y-10000650D01*
X14429705Y-10000650D02*
X14458277Y-10000650D01*
X14458277Y-10000650D02*
X14477324Y-10010174D01*
X14477324Y-10010174D02*
X14486848Y-10029222D01*
X14486848Y-10029222D02*
X14486848Y-10133984D01*
X14582086Y-10133984D02*
X14582086Y-10000650D01*
X14582086Y-10019698D02*
X14591610Y-10010174D01*
X14591610Y-10010174D02*
X14610658Y-10000650D01*
X14610658Y-10000650D02*
X14639229Y-10000650D01*
X14639229Y-10000650D02*
X14658277Y-10010174D01*
X14658277Y-10010174D02*
X14667801Y-10029222D01*
X14667801Y-10029222D02*
X14667801Y-10133984D01*
X14667801Y-10029222D02*
X14677324Y-10010174D01*
X14677324Y-10010174D02*
X14696372Y-10000650D01*
X14696372Y-10000650D02*
X14724943Y-10000650D01*
X14724943Y-10000650D02*
X14743991Y-10010174D01*
X14743991Y-10010174D02*
X14753515Y-10029222D01*
X14753515Y-10029222D02*
X14753515Y-10133984D01*
X15143991Y-9924460D02*
X14972563Y-10181603D01*
X15401134Y-9933984D02*
X15420182Y-9933984D01*
X15420182Y-9933984D02*
X15439229Y-9943508D01*
X15439229Y-9943508D02*
X15448753Y-9953031D01*
X15448753Y-9953031D02*
X15458277Y-9972079D01*
X15458277Y-9972079D02*
X15467801Y-10010174D01*
X15467801Y-10010174D02*
X15467801Y-10057793D01*
X15467801Y-10057793D02*
X15458277Y-10095889D01*
X15458277Y-10095889D02*
X15448753Y-10114936D01*
X15448753Y-10114936D02*
X15439229Y-10124460D01*
X15439229Y-10124460D02*
X15420182Y-10133984D01*
X15420182Y-10133984D02*
X15401134Y-10133984D01*
X15401134Y-10133984D02*
X15382086Y-10124460D01*
X15382086Y-10124460D02*
X15372563Y-10114936D01*
X15372563Y-10114936D02*
X15363039Y-10095889D01*
X15363039Y-10095889D02*
X15353515Y-10057793D01*
X15353515Y-10057793D02*
X15353515Y-10010174D01*
X15353515Y-10010174D02*
X15363039Y-9972079D01*
X15363039Y-9972079D02*
X15372563Y-9953031D01*
X15372563Y-9953031D02*
X15382086Y-9943508D01*
X15382086Y-9943508D02*
X15401134Y-9933984D01*
X15553515Y-10114936D02*
X15563039Y-10124460D01*
X15563039Y-10124460D02*
X15553515Y-10133984D01*
X15553515Y-10133984D02*
X15543991Y-10124460D01*
X15543991Y-10124460D02*
X15553515Y-10114936D01*
X15553515Y-10114936D02*
X15553515Y-10133984D01*
X15686848Y-9933984D02*
X15705896Y-9933984D01*
X15705896Y-9933984D02*
X15724944Y-9943508D01*
X15724944Y-9943508D02*
X15734467Y-9953031D01*
X15734467Y-9953031D02*
X15743991Y-9972079D01*
X15743991Y-9972079D02*
X15753515Y-10010174D01*
X15753515Y-10010174D02*
X15753515Y-10057793D01*
X15753515Y-10057793D02*
X15743991Y-10095889D01*
X15743991Y-10095889D02*
X15734467Y-10114936D01*
X15734467Y-10114936D02*
X15724944Y-10124460D01*
X15724944Y-10124460D02*
X15705896Y-10133984D01*
X15705896Y-10133984D02*
X15686848Y-10133984D01*
X15686848Y-10133984D02*
X15667801Y-10124460D01*
X15667801Y-10124460D02*
X15658277Y-10114936D01*
X15658277Y-10114936D02*
X15648753Y-10095889D01*
X15648753Y-10095889D02*
X15639229Y-10057793D01*
X15639229Y-10057793D02*
X15639229Y-10010174D01*
X15639229Y-10010174D02*
X15648753Y-9972079D01*
X15648753Y-9972079D02*
X15658277Y-9953031D01*
X15658277Y-9953031D02*
X15667801Y-9943508D01*
X15667801Y-9943508D02*
X15686848Y-9933984D01*
X15820182Y-9933984D02*
X15943991Y-9933984D01*
X15943991Y-9933984D02*
X15877325Y-10010174D01*
X15877325Y-10010174D02*
X15905896Y-10010174D01*
X15905896Y-10010174D02*
X15924944Y-10019698D01*
X15924944Y-10019698D02*
X15934467Y-10029222D01*
X15934467Y-10029222D02*
X15943991Y-10048270D01*
X15943991Y-10048270D02*
X15943991Y-10095889D01*
X15943991Y-10095889D02*
X15934467Y-10114936D01*
X15934467Y-10114936D02*
X15924944Y-10124460D01*
X15924944Y-10124460D02*
X15905896Y-10133984D01*
X15905896Y-10133984D02*
X15848753Y-10133984D01*
X15848753Y-10133984D02*
X15829706Y-10124460D01*
X15829706Y-10124460D02*
X15820182Y-10114936D01*
X16039229Y-10133984D02*
X16077325Y-10133984D01*
X16077325Y-10133984D02*
X16096372Y-10124460D01*
X16096372Y-10124460D02*
X16105896Y-10114936D01*
X16105896Y-10114936D02*
X16124944Y-10086365D01*
X16124944Y-10086365D02*
X16134467Y-10048270D01*
X16134467Y-10048270D02*
X16134467Y-9972079D01*
X16134467Y-9972079D02*
X16124944Y-9953031D01*
X16124944Y-9953031D02*
X16115420Y-9943508D01*
X16115420Y-9943508D02*
X16096372Y-9933984D01*
X16096372Y-9933984D02*
X16058277Y-9933984D01*
X16058277Y-9933984D02*
X16039229Y-9943508D01*
X16039229Y-9943508D02*
X16029706Y-9953031D01*
X16029706Y-9953031D02*
X16020182Y-9972079D01*
X16020182Y-9972079D02*
X16020182Y-10019698D01*
X16020182Y-10019698D02*
X16029706Y-10038746D01*
X16029706Y-10038746D02*
X16039229Y-10048270D01*
X16039229Y-10048270D02*
X16058277Y-10057793D01*
X16058277Y-10057793D02*
X16096372Y-10057793D01*
X16096372Y-10057793D02*
X16115420Y-10048270D01*
X16115420Y-10048270D02*
X16124944Y-10038746D01*
X16124944Y-10038746D02*
X16134467Y-10019698D01*
X16305896Y-10000650D02*
X16305896Y-10133984D01*
X16258277Y-9924460D02*
X16210658Y-10067317D01*
X16210658Y-10067317D02*
X16334467Y-10067317D01*
X16401134Y-9933984D02*
X16401134Y-9972079D01*
X16477325Y-9933984D02*
X16477325Y-9972079D01*
X16772563Y-10210174D02*
X16763039Y-10200650D01*
X16763039Y-10200650D02*
X16743991Y-10172079D01*
X16743991Y-10172079D02*
X16734468Y-10153031D01*
X16734468Y-10153031D02*
X16724944Y-10124460D01*
X16724944Y-10124460D02*
X16715420Y-10076841D01*
X16715420Y-10076841D02*
X16715420Y-10038746D01*
X16715420Y-10038746D02*
X16724944Y-9991127D01*
X16724944Y-9991127D02*
X16734468Y-9962555D01*
X16734468Y-9962555D02*
X16743991Y-9943508D01*
X16743991Y-9943508D02*
X16763039Y-9914936D01*
X16763039Y-9914936D02*
X16772563Y-9905412D01*
X16934468Y-9933984D02*
X16896372Y-9933984D01*
X16896372Y-9933984D02*
X16877325Y-9943508D01*
X16877325Y-9943508D02*
X16867801Y-9953031D01*
X16867801Y-9953031D02*
X16848753Y-9981603D01*
X16848753Y-9981603D02*
X16839230Y-10019698D01*
X16839230Y-10019698D02*
X16839230Y-10095889D01*
X16839230Y-10095889D02*
X16848753Y-10114936D01*
X16848753Y-10114936D02*
X16858277Y-10124460D01*
X16858277Y-10124460D02*
X16877325Y-10133984D01*
X16877325Y-10133984D02*
X16915420Y-10133984D01*
X16915420Y-10133984D02*
X16934468Y-10124460D01*
X16934468Y-10124460D02*
X16943991Y-10114936D01*
X16943991Y-10114936D02*
X16953515Y-10095889D01*
X16953515Y-10095889D02*
X16953515Y-10048270D01*
X16953515Y-10048270D02*
X16943991Y-10029222D01*
X16943991Y-10029222D02*
X16934468Y-10019698D01*
X16934468Y-10019698D02*
X16915420Y-10010174D01*
X16915420Y-10010174D02*
X16877325Y-10010174D01*
X16877325Y-10010174D02*
X16858277Y-10019698D01*
X16858277Y-10019698D02*
X16848753Y-10029222D01*
X16848753Y-10029222D02*
X16839230Y-10048270D01*
X17191611Y-10133984D02*
X17191611Y-9933984D01*
X17277325Y-10133984D02*
X17277325Y-10029222D01*
X17277325Y-10029222D02*
X17267801Y-10010174D01*
X17267801Y-10010174D02*
X17248753Y-10000650D01*
X17248753Y-10000650D02*
X17220182Y-10000650D01*
X17220182Y-10000650D02*
X17201134Y-10010174D01*
X17201134Y-10010174D02*
X17191611Y-10019698D01*
X17401134Y-10133984D02*
X17382087Y-10124460D01*
X17382087Y-10124460D02*
X17372563Y-10114936D01*
X17372563Y-10114936D02*
X17363039Y-10095889D01*
X17363039Y-10095889D02*
X17363039Y-10038746D01*
X17363039Y-10038746D02*
X17372563Y-10019698D01*
X17372563Y-10019698D02*
X17382087Y-10010174D01*
X17382087Y-10010174D02*
X17401134Y-10000650D01*
X17401134Y-10000650D02*
X17429706Y-10000650D01*
X17429706Y-10000650D02*
X17448753Y-10010174D01*
X17448753Y-10010174D02*
X17458277Y-10019698D01*
X17458277Y-10019698D02*
X17467801Y-10038746D01*
X17467801Y-10038746D02*
X17467801Y-10095889D01*
X17467801Y-10095889D02*
X17458277Y-10114936D01*
X17458277Y-10114936D02*
X17448753Y-10124460D01*
X17448753Y-10124460D02*
X17429706Y-10133984D01*
X17429706Y-10133984D02*
X17401134Y-10133984D01*
X17582087Y-10133984D02*
X17563039Y-10124460D01*
X17563039Y-10124460D02*
X17553515Y-10105412D01*
X17553515Y-10105412D02*
X17553515Y-9933984D01*
X17734468Y-10124460D02*
X17715420Y-10133984D01*
X17715420Y-10133984D02*
X17677325Y-10133984D01*
X17677325Y-10133984D02*
X17658277Y-10124460D01*
X17658277Y-10124460D02*
X17648753Y-10105412D01*
X17648753Y-10105412D02*
X17648753Y-10029222D01*
X17648753Y-10029222D02*
X17658277Y-10010174D01*
X17658277Y-10010174D02*
X17677325Y-10000650D01*
X17677325Y-10000650D02*
X17715420Y-10000650D01*
X17715420Y-10000650D02*
X17734468Y-10010174D01*
X17734468Y-10010174D02*
X17743992Y-10029222D01*
X17743992Y-10029222D02*
X17743992Y-10048270D01*
X17743992Y-10048270D02*
X17648753Y-10067317D01*
X17820182Y-10124460D02*
X17839230Y-10133984D01*
X17839230Y-10133984D02*
X17877325Y-10133984D01*
X17877325Y-10133984D02*
X17896373Y-10124460D01*
X17896373Y-10124460D02*
X17905896Y-10105412D01*
X17905896Y-10105412D02*
X17905896Y-10095889D01*
X17905896Y-10095889D02*
X17896373Y-10076841D01*
X17896373Y-10076841D02*
X17877325Y-10067317D01*
X17877325Y-10067317D02*
X17848753Y-10067317D01*
X17848753Y-10067317D02*
X17829706Y-10057793D01*
X17829706Y-10057793D02*
X17820182Y-10038746D01*
X17820182Y-10038746D02*
X17820182Y-10029222D01*
X17820182Y-10029222D02*
X17829706Y-10010174D01*
X17829706Y-10010174D02*
X17848753Y-10000650D01*
X17848753Y-10000650D02*
X17877325Y-10000650D01*
X17877325Y-10000650D02*
X17896373Y-10010174D01*
X17972563Y-10210174D02*
X17982087Y-10200650D01*
X17982087Y-10200650D02*
X18001134Y-10172079D01*
X18001134Y-10172079D02*
X18010658Y-10153031D01*
X18010658Y-10153031D02*
X18020182Y-10124460D01*
X18020182Y-10124460D02*
X18029706Y-10076841D01*
X18029706Y-10076841D02*
X18029706Y-10038746D01*
X18029706Y-10038746D02*
X18020182Y-9991127D01*
X18020182Y-9991127D02*
X18010658Y-9962555D01*
X18010658Y-9962555D02*
X18001134Y-9943508D01*
X18001134Y-9943508D02*
X17982087Y-9914936D01*
X17982087Y-9914936D02*
X17972563Y-9905412D01*
M02*
