%TF.GenerationSoftware,KiCad,Pcbnew,8.0.8*%
%TF.CreationDate,2025-05-20T22:03:47-04:00*%
%TF.ProjectId,Breakout-Flex-PCB-Testing-Stand,42726561-6b6f-4757-942d-466c65782d50,rev?*%
%TF.SameCoordinates,Original*%
%TF.FileFunction,Legend,Top*%
%TF.FilePolarity,Positive*%
%FSLAX46Y46*%
G04 Gerber Fmt 4.6, Leading zero omitted, Abs format (unit mm)*
G04 Created by KiCad (PCBNEW 8.0.8) date 2025-05-20 22:03:47*
%MOMM*%
%LPD*%
G01*
G04 APERTURE LIST*
%ADD10C,0.200000*%
%ADD11C,0.150000*%
%ADD12C,0.120000*%
G04 APERTURE END LIST*
D10*
X276190476Y-72918127D02*
X276000000Y-72918127D01*
X276000000Y-72918127D02*
X275904762Y-72991937D01*
X275904762Y-72991937D02*
X275857143Y-73065746D01*
X275857143Y-73065746D02*
X275761905Y-73287175D01*
X275761905Y-73287175D02*
X275714286Y-73582413D01*
X275714286Y-73582413D02*
X275714286Y-74172889D01*
X275714286Y-74172889D02*
X275761905Y-74320508D01*
X275761905Y-74320508D02*
X275809524Y-74394318D01*
X275809524Y-74394318D02*
X275904762Y-74468127D01*
X275904762Y-74468127D02*
X276095238Y-74468127D01*
X276095238Y-74468127D02*
X276190476Y-74394318D01*
X276190476Y-74394318D02*
X276238095Y-74320508D01*
X276238095Y-74320508D02*
X276285714Y-74172889D01*
X276285714Y-74172889D02*
X276285714Y-73803841D01*
X276285714Y-73803841D02*
X276238095Y-73656222D01*
X276238095Y-73656222D02*
X276190476Y-73582413D01*
X276190476Y-73582413D02*
X276095238Y-73508603D01*
X276095238Y-73508603D02*
X275904762Y-73508603D01*
X275904762Y-73508603D02*
X275809524Y-73582413D01*
X275809524Y-73582413D02*
X275761905Y-73656222D01*
X275761905Y-73656222D02*
X275714286Y-73803841D01*
X276238095Y-75413540D02*
X275761905Y-75413540D01*
X275761905Y-75413540D02*
X275714286Y-76151635D01*
X275714286Y-76151635D02*
X275761905Y-76077826D01*
X275761905Y-76077826D02*
X275857143Y-76004016D01*
X275857143Y-76004016D02*
X276095238Y-76004016D01*
X276095238Y-76004016D02*
X276190476Y-76077826D01*
X276190476Y-76077826D02*
X276238095Y-76151635D01*
X276238095Y-76151635D02*
X276285714Y-76299254D01*
X276285714Y-76299254D02*
X276285714Y-76668302D01*
X276285714Y-76668302D02*
X276238095Y-76815921D01*
X276238095Y-76815921D02*
X276190476Y-76889731D01*
X276190476Y-76889731D02*
X276095238Y-76963540D01*
X276095238Y-76963540D02*
X275857143Y-76963540D01*
X275857143Y-76963540D02*
X275761905Y-76889731D01*
X275761905Y-76889731D02*
X275714286Y-76815921D01*
X276190476Y-78425620D02*
X276190476Y-79458953D01*
X275952381Y-77835144D02*
X275714286Y-78942286D01*
X275714286Y-78942286D02*
X276333333Y-78942286D01*
X275666667Y-80404366D02*
X276285714Y-80404366D01*
X276285714Y-80404366D02*
X275952381Y-80994842D01*
X275952381Y-80994842D02*
X276095238Y-80994842D01*
X276095238Y-80994842D02*
X276190476Y-81068652D01*
X276190476Y-81068652D02*
X276238095Y-81142461D01*
X276238095Y-81142461D02*
X276285714Y-81290080D01*
X276285714Y-81290080D02*
X276285714Y-81659128D01*
X276285714Y-81659128D02*
X276238095Y-81806747D01*
X276238095Y-81806747D02*
X276190476Y-81880557D01*
X276190476Y-81880557D02*
X276095238Y-81954366D01*
X276095238Y-81954366D02*
X275809524Y-81954366D01*
X275809524Y-81954366D02*
X275714286Y-81880557D01*
X275714286Y-81880557D02*
X275666667Y-81806747D01*
X275714286Y-83047398D02*
X275761905Y-82973589D01*
X275761905Y-82973589D02*
X275857143Y-82899779D01*
X275857143Y-82899779D02*
X276095238Y-82899779D01*
X276095238Y-82899779D02*
X276190476Y-82973589D01*
X276190476Y-82973589D02*
X276238095Y-83047398D01*
X276238095Y-83047398D02*
X276285714Y-83195017D01*
X276285714Y-83195017D02*
X276285714Y-83342636D01*
X276285714Y-83342636D02*
X276238095Y-83564065D01*
X276238095Y-83564065D02*
X275666667Y-84449779D01*
X275666667Y-84449779D02*
X276285714Y-84449779D01*
X276285714Y-86945192D02*
X275714286Y-86945192D01*
X276000000Y-86945192D02*
X276000000Y-85395192D01*
X276000000Y-85395192D02*
X275904762Y-85616621D01*
X275904762Y-85616621D02*
X275809524Y-85764240D01*
X275809524Y-85764240D02*
X275714286Y-85838049D01*
D11*
X134147532Y-85769067D02*
X134147532Y-86331497D01*
X134147532Y-86331497D02*
X134110037Y-86443983D01*
X134110037Y-86443983D02*
X134035046Y-86518974D01*
X134035046Y-86518974D02*
X133922560Y-86556469D01*
X133922560Y-86556469D02*
X133847570Y-86556469D01*
X134934934Y-86556469D02*
X134484990Y-86556469D01*
X134709962Y-86556469D02*
X134709962Y-85769067D01*
X134709962Y-85769067D02*
X134634971Y-85881553D01*
X134634971Y-85881553D02*
X134559981Y-85956544D01*
X134559981Y-85956544D02*
X134484990Y-85994039D01*
X272766666Y-88524819D02*
X272766666Y-89239104D01*
X272766666Y-89239104D02*
X272719047Y-89381961D01*
X272719047Y-89381961D02*
X272623809Y-89477200D01*
X272623809Y-89477200D02*
X272480952Y-89524819D01*
X272480952Y-89524819D02*
X272385714Y-89524819D01*
X273147619Y-88524819D02*
X273814285Y-88524819D01*
X273814285Y-88524819D02*
X273385714Y-89524819D01*
X134137532Y-80769067D02*
X134137532Y-81331497D01*
X134137532Y-81331497D02*
X134100037Y-81443983D01*
X134100037Y-81443983D02*
X134025046Y-81518974D01*
X134025046Y-81518974D02*
X133912560Y-81556469D01*
X133912560Y-81556469D02*
X133837570Y-81556469D01*
X134437495Y-80769067D02*
X134924934Y-80769067D01*
X134924934Y-80769067D02*
X134662467Y-81069030D01*
X134662467Y-81069030D02*
X134774953Y-81069030D01*
X134774953Y-81069030D02*
X134849943Y-81106525D01*
X134849943Y-81106525D02*
X134887439Y-81144020D01*
X134887439Y-81144020D02*
X134924934Y-81219011D01*
X134924934Y-81219011D02*
X134924934Y-81406488D01*
X134924934Y-81406488D02*
X134887439Y-81481478D01*
X134887439Y-81481478D02*
X134849943Y-81518974D01*
X134849943Y-81518974D02*
X134774953Y-81556469D01*
X134774953Y-81556469D02*
X134549981Y-81556469D01*
X134549981Y-81556469D02*
X134474990Y-81518974D01*
X134474990Y-81518974D02*
X134437495Y-81481478D01*
X134147532Y-73269067D02*
X134147532Y-73831497D01*
X134147532Y-73831497D02*
X134110037Y-73943983D01*
X134110037Y-73943983D02*
X134035046Y-74018974D01*
X134035046Y-74018974D02*
X133922560Y-74056469D01*
X133922560Y-74056469D02*
X133847570Y-74056469D01*
X134859943Y-73269067D02*
X134709962Y-73269067D01*
X134709962Y-73269067D02*
X134634971Y-73306562D01*
X134634971Y-73306562D02*
X134597476Y-73344058D01*
X134597476Y-73344058D02*
X134522485Y-73456544D01*
X134522485Y-73456544D02*
X134484990Y-73606525D01*
X134484990Y-73606525D02*
X134484990Y-73906488D01*
X134484990Y-73906488D02*
X134522485Y-73981478D01*
X134522485Y-73981478D02*
X134559981Y-74018974D01*
X134559981Y-74018974D02*
X134634971Y-74056469D01*
X134634971Y-74056469D02*
X134784953Y-74056469D01*
X134784953Y-74056469D02*
X134859943Y-74018974D01*
X134859943Y-74018974D02*
X134897439Y-73981478D01*
X134897439Y-73981478D02*
X134934934Y-73906488D01*
X134934934Y-73906488D02*
X134934934Y-73719011D01*
X134934934Y-73719011D02*
X134897439Y-73644020D01*
X134897439Y-73644020D02*
X134859943Y-73606525D01*
X134859943Y-73606525D02*
X134784953Y-73569030D01*
X134784953Y-73569030D02*
X134634971Y-73569030D01*
X134634971Y-73569030D02*
X134559981Y-73606525D01*
X134559981Y-73606525D02*
X134522485Y-73644020D01*
X134522485Y-73644020D02*
X134484990Y-73719011D01*
X134147532Y-78269067D02*
X134147532Y-78831497D01*
X134147532Y-78831497D02*
X134110037Y-78943983D01*
X134110037Y-78943983D02*
X134035046Y-79018974D01*
X134035046Y-79018974D02*
X133922560Y-79056469D01*
X133922560Y-79056469D02*
X133847570Y-79056469D01*
X134859943Y-78531534D02*
X134859943Y-79056469D01*
X134672467Y-78231572D02*
X134484990Y-78794002D01*
X134484990Y-78794002D02*
X134972429Y-78794002D01*
X134117532Y-75769067D02*
X134117532Y-76331497D01*
X134117532Y-76331497D02*
X134080037Y-76443983D01*
X134080037Y-76443983D02*
X134005046Y-76518974D01*
X134005046Y-76518974D02*
X133892560Y-76556469D01*
X133892560Y-76556469D02*
X133817570Y-76556469D01*
X134867439Y-75769067D02*
X134492485Y-75769067D01*
X134492485Y-75769067D02*
X134454990Y-76144020D01*
X134454990Y-76144020D02*
X134492485Y-76106525D01*
X134492485Y-76106525D02*
X134567476Y-76069030D01*
X134567476Y-76069030D02*
X134754953Y-76069030D01*
X134754953Y-76069030D02*
X134829943Y-76106525D01*
X134829943Y-76106525D02*
X134867439Y-76144020D01*
X134867439Y-76144020D02*
X134904934Y-76219011D01*
X134904934Y-76219011D02*
X134904934Y-76406488D01*
X134904934Y-76406488D02*
X134867439Y-76481478D01*
X134867439Y-76481478D02*
X134829943Y-76518974D01*
X134829943Y-76518974D02*
X134754953Y-76556469D01*
X134754953Y-76556469D02*
X134567476Y-76556469D01*
X134567476Y-76556469D02*
X134492485Y-76518974D01*
X134492485Y-76518974D02*
X134454990Y-76481478D01*
X134117532Y-83269067D02*
X134117532Y-83831497D01*
X134117532Y-83831497D02*
X134080037Y-83943983D01*
X134080037Y-83943983D02*
X134005046Y-84018974D01*
X134005046Y-84018974D02*
X133892560Y-84056469D01*
X133892560Y-84056469D02*
X133817570Y-84056469D01*
X134454990Y-83344058D02*
X134492485Y-83306562D01*
X134492485Y-83306562D02*
X134567476Y-83269067D01*
X134567476Y-83269067D02*
X134754953Y-83269067D01*
X134754953Y-83269067D02*
X134829943Y-83306562D01*
X134829943Y-83306562D02*
X134867439Y-83344058D01*
X134867439Y-83344058D02*
X134904934Y-83419048D01*
X134904934Y-83419048D02*
X134904934Y-83494039D01*
X134904934Y-83494039D02*
X134867439Y-83606525D01*
X134867439Y-83606525D02*
X134417495Y-84056469D01*
X134417495Y-84056469D02*
X134904934Y-84056469D01*
D12*
%TO.C,J7*%
X271770000Y-85030000D02*
X271770000Y-72270000D01*
X271770000Y-87630000D02*
X271770000Y-86300000D01*
X273100000Y-87630000D02*
X271770000Y-87630000D01*
X274430000Y-72270000D02*
X271770000Y-72270000D01*
X274430000Y-85030000D02*
X271770000Y-85030000D01*
X274430000Y-85030000D02*
X274430000Y-72270000D01*
%TD*%
M02*
