%TF.GenerationSoftware,KiCad,Pcbnew,8.0.8*%
%TF.CreationDate,2025-05-20T22:03:44-04:00*%
%TF.ProjectId,Breakout-Flex-PCB-Testing-Stand,42726561-6b6f-4757-942d-466c65782d50,rev?*%
%TF.SameCoordinates,Original*%
%TF.FileFunction,Drillmap*%
%TF.FilePolarity,Positive*%
%FSLAX45Y45*%
G04 Gerber Fmt 4.5, Leading zero omitted, Abs format (unit mm)*
G04 Created by KiCad (PCBNEW 8.0.8) date 2025-05-20 22:03:44*
%MOMM*%
%LPD*%
G01*
G04 APERTURE LIST*
%ADD10C,0.050000*%
%ADD11C,0.200000*%
G04 APERTURE END LIST*
D10*
X27500000Y-6700000D02*
X27700000Y-6900000D01*
X26800000Y-9200000D02*
X26800000Y-8500000D01*
X13200000Y-8700000D02*
X13200000Y-7300000D01*
X14300000Y-8300000D02*
X26600000Y-8300000D01*
X27000000Y-6700000D02*
X26800000Y-6900000D01*
X27500000Y-6700000D02*
X27000000Y-6700000D01*
X13400000Y-7100000D02*
X13200000Y-7300000D01*
X27500000Y-9400000D02*
X27700000Y-9200000D01*
X14100000Y-8700000D02*
X14100000Y-8500000D01*
X13400000Y-8900000D02*
X13200000Y-8700000D01*
X27500000Y-9400000D02*
X27000000Y-9400000D01*
X13900000Y-8900000D02*
X14100000Y-8700000D01*
X13900000Y-8900000D02*
X13400000Y-8900000D01*
X14300000Y-7700000D02*
X14100000Y-7500000D01*
X14100000Y-7500000D02*
X14100000Y-7300000D01*
X14300000Y-7700000D02*
X26600000Y-7700000D01*
X14100000Y-8500000D02*
X14300000Y-8300000D01*
X13900000Y-7100000D02*
X13400000Y-7100000D01*
X27700000Y-9200000D02*
X27700000Y-6900000D01*
X26800000Y-7500000D02*
X26800000Y-6900000D01*
X27000000Y-9400000D02*
X26800000Y-9200000D01*
X26600000Y-7700000D02*
X26800000Y-7500000D01*
X26600000Y-8300000D02*
X26800000Y-8500000D01*
X14100000Y-7300000D02*
X13900000Y-7100000D01*
D11*
X13458277Y-9713984D02*
X13458277Y-9513984D01*
X13458277Y-9513984D02*
X13505896Y-9513984D01*
X13505896Y-9513984D02*
X13534467Y-9523508D01*
X13534467Y-9523508D02*
X13553515Y-9542555D01*
X13553515Y-9542555D02*
X13563039Y-9561603D01*
X13563039Y-9561603D02*
X13572562Y-9599698D01*
X13572562Y-9599698D02*
X13572562Y-9628270D01*
X13572562Y-9628270D02*
X13563039Y-9666365D01*
X13563039Y-9666365D02*
X13553515Y-9685412D01*
X13553515Y-9685412D02*
X13534467Y-9704460D01*
X13534467Y-9704460D02*
X13505896Y-9713984D01*
X13505896Y-9713984D02*
X13458277Y-9713984D01*
X13658277Y-9713984D02*
X13658277Y-9580650D01*
X13658277Y-9618746D02*
X13667801Y-9599698D01*
X13667801Y-9599698D02*
X13677324Y-9590174D01*
X13677324Y-9590174D02*
X13696372Y-9580650D01*
X13696372Y-9580650D02*
X13715420Y-9580650D01*
X13782086Y-9713984D02*
X13782086Y-9580650D01*
X13782086Y-9513984D02*
X13772562Y-9523508D01*
X13772562Y-9523508D02*
X13782086Y-9533031D01*
X13782086Y-9533031D02*
X13791610Y-9523508D01*
X13791610Y-9523508D02*
X13782086Y-9513984D01*
X13782086Y-9513984D02*
X13782086Y-9533031D01*
X13905896Y-9713984D02*
X13886848Y-9704460D01*
X13886848Y-9704460D02*
X13877324Y-9685412D01*
X13877324Y-9685412D02*
X13877324Y-9513984D01*
X14010658Y-9713984D02*
X13991610Y-9704460D01*
X13991610Y-9704460D02*
X13982086Y-9685412D01*
X13982086Y-9685412D02*
X13982086Y-9513984D01*
X14239229Y-9713984D02*
X14239229Y-9513984D01*
X14239229Y-9513984D02*
X14305896Y-9656841D01*
X14305896Y-9656841D02*
X14372562Y-9513984D01*
X14372562Y-9513984D02*
X14372562Y-9713984D01*
X14553515Y-9713984D02*
X14553515Y-9609222D01*
X14553515Y-9609222D02*
X14543991Y-9590174D01*
X14543991Y-9590174D02*
X14524943Y-9580650D01*
X14524943Y-9580650D02*
X14486848Y-9580650D01*
X14486848Y-9580650D02*
X14467801Y-9590174D01*
X14553515Y-9704460D02*
X14534467Y-9713984D01*
X14534467Y-9713984D02*
X14486848Y-9713984D01*
X14486848Y-9713984D02*
X14467801Y-9704460D01*
X14467801Y-9704460D02*
X14458277Y-9685412D01*
X14458277Y-9685412D02*
X14458277Y-9666365D01*
X14458277Y-9666365D02*
X14467801Y-9647317D01*
X14467801Y-9647317D02*
X14486848Y-9637793D01*
X14486848Y-9637793D02*
X14534467Y-9637793D01*
X14534467Y-9637793D02*
X14553515Y-9628270D01*
X14648753Y-9580650D02*
X14648753Y-9780650D01*
X14648753Y-9590174D02*
X14667801Y-9580650D01*
X14667801Y-9580650D02*
X14705896Y-9580650D01*
X14705896Y-9580650D02*
X14724943Y-9590174D01*
X14724943Y-9590174D02*
X14734467Y-9599698D01*
X14734467Y-9599698D02*
X14743991Y-9618746D01*
X14743991Y-9618746D02*
X14743991Y-9675889D01*
X14743991Y-9675889D02*
X14734467Y-9694936D01*
X14734467Y-9694936D02*
X14724943Y-9704460D01*
X14724943Y-9704460D02*
X14705896Y-9713984D01*
X14705896Y-9713984D02*
X14667801Y-9713984D01*
X14667801Y-9713984D02*
X14648753Y-9704460D01*
X14829705Y-9694936D02*
X14839229Y-9704460D01*
X14839229Y-9704460D02*
X14829705Y-9713984D01*
X14829705Y-9713984D02*
X14820182Y-9704460D01*
X14820182Y-9704460D02*
X14829705Y-9694936D01*
X14829705Y-9694936D02*
X14829705Y-9713984D01*
X14829705Y-9590174D02*
X14839229Y-9599698D01*
X14839229Y-9599698D02*
X14829705Y-9609222D01*
X14829705Y-9609222D02*
X14820182Y-9599698D01*
X14820182Y-9599698D02*
X14829705Y-9590174D01*
X14829705Y-9590174D02*
X14829705Y-9609222D01*
M02*
